<?xml version="1.0" encoding="utf-8"?>
<!-- Generator: Adobe Illustrator 25.4.1, SVG Export Plug-In . SVG Version: 6.00 Build 0)  -->
<svg version="1.1" id="Layer_1" xmlns="http://www.w3.org/2000/svg" xmlns:xlink="http://www.w3.org/1999/xlink" x="0px" y="0px"
	 viewBox="0 0 1920 1080" style="enable-background:new 0 0 1920 1080;" xml:space="preserve">
<style type="text/css">
	.st0{opacity:0.28;fill:#F9AD21;}
	.st1{fill:#FFFFFF;}
	.st2{fill:none;stroke:#F05E3E;stroke-width:2;stroke-linecap:round;stroke-miterlimit:10;}
	.st3{fill:none;stroke:#F05E3E;stroke-width:2;stroke-linecap:round;stroke-miterlimit:10;stroke-dasharray:7.9446,7.9446;}
	.st4{fill:none;stroke:#F05E3E;stroke-width:2;stroke-linecap:round;stroke-miterlimit:10;stroke-dasharray:7.951,7.951;}
	.st5{fill:none;stroke:#FDCA0F;stroke-width:2;stroke-linecap:round;stroke-miterlimit:10;}
	.st6{fill:#F9AD21;}
	.st7{fill:none;stroke:#F05E3E;stroke-width:2;stroke-miterlimit:10;}
	.st8{fill:none;stroke:#F05E3E;stroke-width:2;stroke-linejoin:round;stroke-miterlimit:10;}
	.st9{fill:#414042;}
</style>
<g>
	<path class="st0" d="M1260.87,505.38c0,60.43-16.65,116.98-45.62,165.28H662.85c-28.98-48.3-45.64-104.84-45.64-165.28
		c0-177.75,144.09-321.82,321.82-321.82C1116.78,183.56,1260.87,327.63,1260.87,505.38z"/>
	<g>
		<path class="st1" d="M772.33,273.46H597.51c-6.96,0-12.6-5.64-12.6-12.6l0,0c0-6.96,5.64-12.6,12.6-12.6h174.83
			c6.96,0,12.6,5.64,12.6,12.6l0,0C784.93,267.82,779.29,273.46,772.33,273.46z"/>
		<path class="st1" d="M1166.9,232.98H980.01c-3.63,0-6.57-2.94-6.57-6.57v-12.06c0-3.63,2.94-6.57,6.57-6.57h186.89
			c3.63,0,6.57,2.94,6.57,6.57v12.06C1173.46,230.04,1170.52,232.98,1166.9,232.98z"/>
		<path class="st1" d="M1316.42,417.93h-174.83c-6.96,0-12.6-5.64-12.6-12.6l0,0c0-6.96,5.64-12.6,12.6-12.6h174.83
			c6.96,0,12.6,5.64,12.6,12.6l0,0C1329.02,412.28,1323.37,417.93,1316.42,417.93z"/>
		<path class="st1" d="M1389.51,458.03h-174.83c-6.96,0-12.6-5.64-12.6-12.6l0,0c0-6.96,5.64-12.6,12.6-12.6h174.83
			c6.96,0,12.6,5.64,12.6,12.6l0,0C1402.11,452.39,1396.47,458.03,1389.51,458.03z"/>
		<path class="st1" d="M784.04,391.39H609.22c-6.96,0-12.6-5.64-12.6-12.6l0,0c0-6.96,5.64-12.6,12.6-12.6h174.83
			c6.96,0,12.6,5.64,12.6,12.6l0,0C796.64,385.74,791,391.39,784.04,391.39z"/>
	</g>
	<g>
		<g>
			<path class="st2" d="M1247.45,663.88c-1.17,2.27-2.37,4.53-3.59,6.78h-7.67"/>
			<line class="st3" x1="1220.96" y1="670.66" x2="649.49" y2="670.66"/>
			<path class="st2" d="M641.87,670.66h-7.67c-1.22-2.24-2.41-4.5-3.58-6.78"/>
			<path class="st4" d="M623.93,650.17c-20.28-44.06-31.59-93.1-31.59-144.79c0-191.47,155.21-346.7,346.69-346.7
				s346.7,155.23,346.7,346.7c0,54.4-12.53,105.86-34.86,151.68"/>
		</g>
	</g>
</g>
<g>
	<line class="st5" x1="565.73" y1="271.85" x2="548.48" y2="289.1"/>
	<line class="st5" x1="548.48" y1="271.85" x2="565.73" y2="289.1"/>
</g>
<g>
	<line class="st5" x1="421.53" y1="623.97" x2="404.27" y2="641.23"/>
	<line class="st5" x1="404.27" y1="623.97" x2="421.53" y2="641.23"/>
</g>
<g>
	<line class="st5" x1="871.13" y1="230.06" x2="853.87" y2="247.31"/>
	<line class="st5" x1="853.87" y1="230.06" x2="871.13" y2="247.31"/>
</g>
<g>
	<line class="st5" x1="1395.38" y1="567.75" x2="1378.13" y2="585"/>
	<line class="st5" x1="1378.13" y1="567.75" x2="1395.38" y2="585"/>
</g>
<g>
	<line class="st5" x1="1373.75" y1="271.85" x2="1356.5" y2="289.1"/>
	<line class="st5" x1="1356.5" y1="271.85" x2="1373.75" y2="289.1"/>
</g>
<g>
	<line class="st5" x1="1214.13" y1="166.58" x2="1196.88" y2="183.84"/>
	<line class="st5" x1="1196.88" y1="166.58" x2="1214.13" y2="183.84"/>
</g>
<circle class="st5" cx="479.87" cy="403.57" r="10.84"/>
<path class="st5" d="M540,546.15c4.5,3.95,4.94,10.81,0.99,15.3c-3.95,4.5-10.8,4.94-15.3,0.99c-4.5-3.95-4.94-10.8-0.99-15.3
	C528.65,542.64,535.5,542.19,540,546.15z"/>
<circle class="st5" cx="1514.87" cy="643.44" r="10.84"/>
<path class="st5" d="M1099.81,267.96c0,5.99-4.85,10.84-10.84,10.84s-10.84-4.85-10.84-10.84c0-5.99,4.85-10.84,10.84-10.84
	S1099.81,261.97,1099.81,267.96z"/>
<circle class="st5" cx="818.2" cy="80.13" r="10.84"/>
<circle class="st5" cx="1348.29" cy="448.43" r="10.84"/>
<g>
	<path class="st6" d="M1088.97,530.74c0,2.62-0.86,4.81-2.57,6.58c-1.72,1.77-4.21,2.65-7.47,2.65h-4.89v13.85
		c0,7.54-3.86,11.31-11.59,11.31c-6.53,0-9.78-4.08-9.78-12.23v-12.93h-43c-9.96,0-14.93-2.69-14.93-8.08
		c0-2.15,0.81-4.58,2.45-7.27c1.63-2.69,2.96-4.81,3.99-6.35l33.99-52.63c2.74-3.84,5.62-6.69,8.63-8.54
		c3-1.85,6.48-2.77,10.43-2.77c6.35,0,11.24,1.62,14.68,4.85c3.43,3.23,5.15,8.62,5.15,16.16v46.17h4.89c3.26,0,5.75,0.92,7.47,2.77
		C1088.11,526.13,1088.97,528.28,1088.97,530.74z M1052.66,521.51v-47.55l-29.87,47.55H1052.66z"/>
	<path class="st6" d="M851.11,530.74c0,2.62-0.86,4.81-2.57,6.58c-1.72,1.77-4.21,2.65-7.47,2.65h-4.89v13.85
		c0,7.54-3.86,11.31-11.59,11.31c-6.53,0-9.78-4.08-9.78-12.23v-12.93h-43c-9.96,0-14.93-2.69-14.93-8.08
		c0-2.15,0.81-4.58,2.45-7.27c1.63-2.69,2.96-4.81,3.99-6.35l33.99-52.63c2.74-3.84,5.62-6.69,8.63-8.54
		c3-1.85,6.48-2.77,10.43-2.77c6.35,0,11.24,1.62,14.68,4.85c3.43,3.23,5.15,8.62,5.15,16.16v46.17h4.89c3.26,0,5.75,0.92,7.47,2.77
		C850.25,526.13,851.11,528.28,851.11,530.74z M814.8,521.51v-47.55l-29.87,47.55H814.8z"/>
	<path class="st6" d="M966.84,498.7h-6.84c-1.11-4.44-2.86-8.63-5.16-12.46l4.84-4.84c1.61-1.61,1.61-4.21,0-5.82l-9.97-9.97
		c-1.61-1.61-4.21-1.61-5.82,0l-4.84,4.84c-3.83-2.3-8.01-4.05-12.46-5.16v-6.84c0-2.27-1.84-4.11-4.11-4.11h-14.1
		c-2.27,0-4.11,1.84-4.11,4.11v6.84c-4.44,1.11-8.63,2.86-12.46,5.16l-4.84-4.84c-1.61-1.61-4.21-1.61-5.82,0l-9.97,9.97
		c-1.61,1.61-1.61,4.21,0,5.82l4.84,4.84c-2.3,3.83-4.05,8.01-5.16,12.46h-6.84c-2.27,0-4.11,1.84-4.11,4.11v14.1
		c0,2.27,1.84,4.11,4.11,4.11h6.84c1.11,4.45,2.86,8.63,5.16,12.46l-4.84,4.84c-1.61,1.61-1.61,4.21,0,5.82l9.97,9.97
		c1.61,1.61,4.21,1.61,5.82,0l4.84-4.84c3.83,2.3,8.01,4.05,12.46,5.16v6.84c0,2.27,1.84,4.11,4.11,4.11h14.1
		c2.27,0,4.11-1.84,4.11-4.11v-6.84c4.45-1.11,8.63-2.86,12.46-5.16l4.84,4.84c1.61,1.61,4.21,1.61,5.82,0l9.97-9.97
		c1.61-1.61,1.61-4.21,0-5.82l-4.84-4.84c2.3-3.83,4.05-8.01,5.16-12.46h6.84c2.27,0,4.11-1.84,4.11-4.11v-14.1
		C970.95,500.55,969.11,498.7,966.84,498.7z M915.43,537.67c-15.36,0-27.8-12.45-27.8-27.8c0-15.36,12.45-27.8,27.8-27.8
		c15.36,0,27.8,12.45,27.8,27.8C943.23,525.22,930.78,537.67,915.43,537.67z"/>
	<g>
		<path class="st7" d="M822.29,524.12v-47.55l-29.87,47.55H822.29z"/>
		<path class="st7" d="M922.92,540.03c-15.36,0-27.8-12.45-27.8-27.8c0-15.36,12.45-27.8,27.8-27.8c15.36,0,27.8,12.45,27.8,27.8
			C950.72,527.58,938.27,540.03,922.92,540.03z"/>
		<path class="st7" d="M1163.51,567.75h-70.52c-9.64,0-11.65-3.77-11.65-11.31v-13.85h4.89c3.26,0,5.75-0.88,7.47-2.65
			c1.71-1.77,2.57-3.96,2.57-6.58c0-2.46-0.86-4.62-2.57-6.46c-1.72-1.85-4.21-2.77-7.47-2.77h-4.89v-46.17
			c0-7.54-1.72-12.93-5.15-16.16c-3.44-3.23-8.33-4.85-14.68-4.85c-3.95,0-7.43,0.92-10.43,2.77c-3.01,1.85-5.88,4.7-8.63,8.54
			l-33.99,52.63c-1.03,1.54-2.36,3.66-3.99,6.35c-1.63,2.69-2.45,5.12-2.45,7.27c0,5.39,4.98,8.08,14.93,8.08h43v12.93
			c0,8.16-1.01,12.23-14.27,12.23c-18.83,0-65.16,0-65.16,0h-41.57c-3.81,0-4.89-1.84-4.89-4.11v-6.84
			c4.44-1.11,8.63-2.86,12.46-5.16l4.84,4.84c1.61,1.61,4.21,1.61,5.82,0l9.97-9.97c1.61-1.61,1.61-4.21,0-5.82l-4.84-4.84
			c2.3-3.83,4.05-8.01,5.16-12.46h6.84c2.27,0,4.11-1.84,4.11-4.11v-14.1c0-2.27-1.84-4.11-4.11-4.11h-6.84
			c-1.11-4.44-2.86-8.63-5.16-12.46l4.84-4.84c1.61-1.61,1.61-4.21,0-5.82l-9.97-9.97c-1.61-1.61-4.21-1.61-5.82,0l-4.84,4.84
			c-3.83-2.3-8.01-4.05-12.46-5.16v-6.84c0-2.27-1.84-4.11-4.11-4.11h-14.1c-2.27,0-4.11,1.84-4.11,4.11v6.84
			c-4.44,1.11-8.63,2.86-12.46,5.16l-4.84-4.84c-1.61-1.61-4.21-1.61-5.82,0l-9.97,9.97c-1.61,1.61-1.61,4.21,0,5.82l4.84,4.84
			c-2.3,3.83-4.05,8.01-5.16,12.46h-6.84c-2.27,0-4.11,1.84-4.11,4.11v14.1c0,2.27,1.84,4.11,4.11,4.11h6.84
			c1.11,4.45,2.86,8.63,5.16,12.46l-4.84,4.84c-1.61,1.61-1.61,4.21,0,5.82l9.97,9.97c1.61,1.61,4.21,1.61,5.82,0l4.84-4.84
			c3.83,2.3,8.01,4.05,12.46,5.16v6.84c0,3.31-3.62,4.11-7.82,4.11h-48.62c-9.64,0-11.65-3.77-11.65-11.31v-13.85h4.89
			c3.26,0,5.75-0.88,7.47-2.65c1.71-1.77,2.58-3.96,2.58-6.58c0-2.46-0.86-4.62-2.58-6.46c-1.72-1.85-4.21-2.77-7.47-2.77h-4.89
			v-46.17c0-7.54-1.72-12.93-5.15-16.16c-3.44-3.23-8.33-4.85-14.68-4.85c-3.95,0-7.43,0.92-10.43,2.77
			c-3.01,1.85-5.88,4.7-8.63,8.54l-33.99,52.63c-1.03,1.54-2.36,3.66-3.99,6.35c-1.63,2.69-2.45,5.12-2.45,7.27
			c0,5.39,4.98,8.08,14.93,8.08h43v12.93c0,8.16-1.01,12.23-14.27,12.23c-18.83,0-93.45,0-93.45,0 M1059.97,524.12v-47.55
			l-29.87,47.55H1059.97z"/>
	</g>
</g>
<g>
	<g>
		<path class="st7" d="M1205.5,670.65H672.57V324.21c0-6.93,5.61-12.54,12.54-12.54h507.85c6.93,0,12.54,5.61,12.54,12.54V670.65z"
			/>
		<rect x="696.63" y="334.06" class="st7" width="484.82" height="313.82"/>
	</g>
	<g>
		<rect x="607.63" y="670.65" class="st7" width="662.83" height="23.32"/>
		<path class="st8" d="M1241.08,708.92H637c-6.6,0-13.01-2.2-18.22-6.26l-11.15-8.69h662.83l-11.15,8.69
			C1254.09,706.71,1247.68,708.92,1241.08,708.92z"/>
	</g>
</g>
<g id="text">
	<g>
		<path class="st6" d="M483.64,842.83c0,38.17-30.31,67.16-70.91,67.16c-40.41,0-70.72-28.81-70.72-67.16
			c0-38.17,30.31-66.42,70.72-66.42C453.33,776.42,483.64,804.85,483.64,842.83z M376.06,843.02c0,22.08,17.03,39.1,37.04,39.1
			c20.21,0,36.29-17.02,36.29-39.1c0-22.08-16.09-38.73-36.29-38.73C392.9,804.29,376.06,820.94,376.06,843.02z"/>
		<path class="st6" d="M602.82,857.98c0,31.06-22.08,51.64-55,51.64c-33.11,0-55.19-20.58-55.19-51.64
			c0-31.06,22.08-51.45,55.19-51.45C580.74,806.54,602.82,826.93,602.82,857.98z M525.18,858.36c0,15.72,9.17,26.19,22.64,26.19
			c13.28,0,22.45-10.48,22.45-26.19c0-15.53-9.17-26.19-22.45-26.19C534.35,832.17,525.18,842.83,525.18,858.36z"/>
		<path class="st6" d="M730.98,858.55c0,30.68-18.34,51.08-46.59,51.08c-13.1,0-23.76-5.24-30.87-14.59v49.76h-32.37V807.66h32.37
			v13.28c7.11-9.17,17.4-14.41,30.12-14.41C712.08,806.54,730.98,827.3,730.98,858.55z M698.43,857.61
			c0-15.34-9.17-26.19-22.64-26.19c-13.1,0-22.26,10.85-22.26,26.19c0,15.72,9.17,26.38,22.26,26.38
			C689.26,883.99,698.43,873.14,698.43,857.61z"/>
		<path class="st6" d="M826.03,817.57l-11.04,20.95c-12.16-6.55-23.39-10.1-31.81-10.1c-5.8,0-9.91,2.25-9.91,6.92
			c0,13.84,53.13,7.11,52.95,42.28c0,20.77-18.15,32.18-42.47,32.18c-16.84,0-33.11-4.86-45.28-14.22l10.29-20.58
			c11.41,8.04,24.51,12.53,35.73,12.53c6.36,0,11.04-2.24,11.04-6.92c0-14.78-52.2-7.11-52.01-42.47
			c0-20.77,17.59-31.99,40.97-31.99C799.09,806.16,813.68,810.28,826.03,817.57z"/>
		<path class="st6" d="M871.68,894.28c0,9.35-6.55,15.72-15.72,15.72c-8.98,0-15.53-6.36-15.53-15.72c0-9.17,6.55-15.53,15.53-15.53
			C865.13,878.75,871.68,885.11,871.68,894.28z M866.25,863.6H846.8l-5.61-52.01v-33.3h30.68v33.3L866.25,863.6z"/>
	</g>
	<g>
		<path class="st9" d="M956.53,838.41l-7.51-24.71l-7.6,24.71h-5.52l-10.5-31.68h5.75l7.69,25.75l7.65-25.7l5.25-0.05l7.69,25.75
			l7.65-25.75h5.52L962,838.41H956.53z"/>
		<path class="st9" d="M994.72,828.36h-18.19c0.81,3.71,3.67,6.02,7.47,6.02c2.62,0,5.02-1,6.79-2.81l2.76,2.94
			c-2.35,2.58-5.79,4.07-9.96,4.07c-7.42,0-12.31-4.93-12.31-12.17c0-7.28,5.02-12.22,12.17-12.26
			C991.91,814.16,995.35,819.68,994.72,828.36z M990.19,824.56c-0.18-3.89-2.76-6.24-6.7-6.24c-3.8,0-6.47,2.4-7.06,6.24H990.19z"/>
		<path class="st9" d="M1031.64,818.09l-2.85,3.35c-1.67-1.72-3.98-2.76-6.88-2.72c-4.16,0-7.15,3.12-7.15,7.69
			c0,4.57,2.99,7.69,7.15,7.69c3.03,0,5.48-1,7.1-2.9l2.9,2.9c-2.17,2.85-5.66,4.48-10.23,4.48c-7.15,0-12.13-4.93-12.13-12.17
			c0-7.28,4.98-12.26,12.13-12.26C1026.03,814.16,1029.43,815.56,1031.64,818.09z"/>
		<path class="st9" d="M1050.78,835.47c-1.72,2.13-4.48,3.17-7.96,3.17c-5.2,0-8.46-3.21-8.46-7.47c0-4.39,3.3-7.2,9.1-7.24h7.29
			v-0.72c0-3.03-1.95-4.84-5.75-4.84c-2.31,0-4.71,0.81-7.1,2.44l-2.13-3.62c3.35-1.99,5.79-3.03,10.36-3.03
			c6.2,0,9.68,3.17,9.73,8.46l0.05,15.79h-5.11V835.47z M1050.74,829.95v-2.22h-6.52c-3.39,0-4.98,0.91-4.98,3.21
			c0,2.17,1.76,3.58,4.66,3.58C1047.62,834.52,1050.47,832.57,1050.74,829.95z"/>
		<path class="st9" d="M1085.9,823.43v14.98h-5.2v-13.53c0-3.62-2.17-5.84-5.79-5.84c-3.98,0.05-6.47,2.81-6.83,6.56v12.81h-5.2
			v-24.07h5.2v4.62c1.72-3.35,4.8-4.8,8.87-4.8C1082.55,814.16,1085.9,817.69,1085.9,823.43z"/>
		<path class="st9" d="M1096.71,809.63c0,0.9-0.32,1.63-0.81,2.35l-2.58,3.89h-2.67l1.72-3.89c-0.81-0.54-1.22-1.4-1.22-2.35
			c0-1.72,1.18-2.9,2.81-2.9C1095.4,806.73,1096.71,807.78,1096.71,809.63z"/>
		<path class="st9" d="M1116.17,836.87c-1.9,1.13-3.89,1.77-5.93,1.77c-3.62,0-6.74-2.08-6.74-7.01v-12.49h-3.39v-3.89h3.39v-6.61
			h5.16v6.61h7.1v3.89h-7.1v11.54c0,2.49,0.95,3.26,2.58,3.26c1.09,0,2.22-0.36,3.62-1.04L1116.17,836.87z"/>
		<path class="st9" d="M1148.25,816.55l-1.9,3.85c-2.13-1.31-4.8-2.13-6.92-2.13c-2.04,0-3.53,0.68-3.53,2.4
			c0,4.43,12.81,2.04,12.76,10.77c0,4.93-4.39,7.15-9.23,7.15c-3.53,0-7.28-1.18-9.68-3.35l1.85-3.71c2.08,1.85,5.43,2.99,8.05,2.99
			c2.22,0,3.94-0.77,3.94-2.58c0-4.93-12.67-2.17-12.62-10.86c0-4.89,4.25-6.97,8.87-6.97
			C1142.87,814.11,1146.08,815.02,1148.25,816.55z"/>
		<path class="st9" d="M1175.09,828.36h-18.19c0.81,3.71,3.66,6.02,7.47,6.02c2.62,0,5.02-1,6.79-2.81l2.76,2.94
			c-2.35,2.58-5.79,4.07-9.96,4.07c-7.42,0-12.31-4.93-12.31-12.17c0-7.28,5.02-12.22,12.17-12.26
			C1172.28,814.16,1175.72,819.68,1175.09,828.36z M1170.56,824.56c-0.18-3.89-2.76-6.24-6.7-6.24c-3.8,0-6.47,2.4-7.06,6.24
			H1170.56z"/>
		<path class="st9" d="M1201.69,828.36h-18.19c0.81,3.71,3.66,6.02,7.47,6.02c2.62,0,5.02-1,6.79-2.81l2.76,2.94
			c-2.35,2.58-5.79,4.07-9.96,4.07c-7.42,0-12.31-4.93-12.31-12.17c0-7.28,5.02-12.22,12.17-12.26
			C1198.89,814.16,1202.33,819.68,1201.69,828.36z M1197.17,824.56c-0.18-3.89-2.76-6.24-6.7-6.24c-3.8,0-6.47,2.4-7.06,6.24
			H1197.17z"/>
		<path class="st9" d="M1247.35,823.43v14.98h-5.2v-13.53c0-3.67-2.17-5.88-5.7-5.88c-4.12,0.14-6.61,3.3-6.61,7.51v11.9h-5.2
			v-13.53c0-3.67-2.13-5.88-5.66-5.88c-4.16,0.14-6.7,3.3-6.7,7.51v11.9h-5.16v-24.07h5.16V819c1.67-3.39,4.75-4.84,8.73-4.84
			c4.3,0,7.24,2.13,8.37,5.79c1.54-4.03,4.75-5.79,9.14-5.79C1244.05,814.16,1247.35,817.69,1247.35,823.43z"/>
		<path class="st9" d="M1279.61,836.87c-1.9,1.13-3.89,1.77-5.93,1.77c-3.62,0-6.74-2.08-6.74-7.01v-12.49h-3.39v-3.89h3.39v-6.61
			h5.16v6.61h7.1v3.89h-7.1v11.54c0,2.49,0.95,3.26,2.58,3.26c1.09,0,2.22-0.36,3.62-1.04L1279.61,836.87z"/>
		<path class="st9" d="M1306.99,826.37c0,7.24-5.11,12.22-12.53,12.22c-7.47,0-12.58-4.98-12.58-12.22
			c0-7.29,5.11-12.22,12.58-12.22C1301.88,814.16,1306.99,819.09,1306.99,826.37z M1287.08,826.42c0,4.66,3.03,7.83,7.38,7.83
			c4.3,0,7.33-3.17,7.33-7.83c0-4.62-3.03-7.78-7.33-7.78C1290.11,818.64,1287.08,821.8,1287.08,826.42z"/>
		<path class="st9" d="M1325.09,812.89c0-5.75,4.25-8.28,8.28-8.28c1.63,0,3.21,0.36,4.48,1.09l-0.18,4.52
			c-1.4-0.63-2.9-1.04-4.16-1.04c-1.86,0-3.26,0.86-3.26,3.21v2.81h6.29v3.89h-6.29v19.32h-5.16v-19.32h-3.17v-3.89h3.17V812.89z
			 M1339.16,807.46c0-1.86,1.31-3.17,3.03-3.17c1.72,0,3.03,1.31,3.03,3.17c0,1.81-1.31,3.12-3.03,3.12
			C1340.48,810.58,1339.16,809.27,1339.16,807.46z M1344.77,814.34v24.07h-5.16v-24.07H1344.77z"/>
		<path class="st9" d="M1375.5,823.43v14.98h-5.2v-13.53c0-3.62-2.17-5.84-5.79-5.84c-3.98,0.05-6.47,2.81-6.83,6.56v12.81h-5.2
			v-24.07h5.2v4.62c1.72-3.35,4.8-4.8,8.87-4.8C1372.15,814.16,1375.5,817.69,1375.5,823.43z"/>
		<path class="st9" d="M1405.41,838.41h-5.2v-4.12c-1.72,2.81-4.62,4.34-8.46,4.34c-6.92,0-11.54-5.02-11.54-12.35
			c0-7.24,4.66-12.17,11.45-12.17c3.89,0,6.79,1.58,8.55,4.39v-13.67h5.2V838.41z M1400.21,826.46c0-4.66-3.03-7.92-7.38-7.92
			c-4.34,0-7.38,3.3-7.42,7.92c0.05,4.57,3.03,7.83,7.42,7.83C1397.17,834.29,1400.21,831.03,1400.21,826.46z"/>
		<path class="st9" d="M1438.62,836.87c-1.9,1.13-3.89,1.77-5.93,1.77c-3.62,0-6.74-2.08-6.74-7.01v-12.49h-3.39v-3.89h3.39v-6.61
			h5.16v6.61h7.1v3.89h-7.1v11.54c0,2.49,0.95,3.26,2.58,3.26c1.09,0,2.22-0.36,3.62-1.04L1438.62,836.87z"/>
		<path class="st9" d="M1466.72,823.43v14.98h-5.2v-13.53c0-3.62-2.17-5.84-5.79-5.84c-4.3,0.05-6.88,3.26-6.88,7.51v11.86h-5.2
			v-33.58h5.2v14.21c1.72-3.39,4.8-4.89,8.91-4.89C1463.38,814.16,1466.72,817.69,1466.72,823.43z"/>
		<path class="st9" d="M1494.87,828.36h-18.19c0.81,3.71,3.66,6.02,7.47,6.02c2.62,0,5.02-1,6.79-2.81l2.76,2.94
			c-2.35,2.58-5.79,4.07-9.96,4.07c-7.42,0-12.31-4.93-12.31-12.17c0-7.28,5.02-12.22,12.17-12.26
			C1492.06,814.16,1495.5,819.68,1494.87,828.36z M1490.34,824.56c-0.18-3.89-2.76-6.24-6.7-6.24c-3.8,0-6.47,2.4-7.06,6.24H1490.34
			z"/>
		<path class="st9" d="M954.44,880.77c0,7.2-4.53,12.13-11.4,12.13c-3.85,0-6.74-1.54-8.51-4.34v12.94h-5.2v-32.85h5.2v4.16
			c1.76-2.8,4.66-4.34,8.42-4.34C949.78,868.46,954.44,873.43,954.44,880.77z M949.2,880.58c0-4.48-3.03-7.78-7.33-7.78
			c-4.3,0-7.33,3.26-7.33,7.78c0,4.66,3.03,7.87,7.33,7.87C946.16,888.46,949.2,885.2,949.2,880.58z"/>
		<path class="st9" d="M974.31,889.77c-1.72,2.13-4.48,3.17-7.96,3.17c-5.2,0-8.46-3.21-8.46-7.47c0-4.39,3.3-7.19,9.1-7.24h7.28
			v-0.72c0-3.03-1.95-4.84-5.75-4.84c-2.31,0-4.71,0.81-7.1,2.44l-2.13-3.62c3.35-1.99,5.79-3.03,10.36-3.03
			c6.2,0,9.68,3.17,9.73,8.46l0.05,15.79h-5.11V889.77z M974.26,884.25v-2.22h-6.52c-3.39,0-4.98,0.9-4.98,3.21
			c0,2.17,1.76,3.58,4.66,3.58C971.14,888.82,973.99,886.87,974.26,884.25z"/>
		<path class="st9" d="M1008.11,890.36c0,6.92-4.93,11.27-12.49,11.27c-3.76,0-7.06-1.18-10-3.17l2.22-3.76
			c2.26,1.67,4.61,2.62,7.56,2.62c4.57,0,7.56-2.67,7.56-6.83v-3.03c-1.63,2.62-4.34,4.07-7.96,4.07c-6.52,0-10.86-4.71-10.86-11.63
			c0-6.79,4.3-11.4,10.68-11.45c3.71-0.04,6.47,1.45,8.14,4.07v-3.89h5.16V890.36z M1002.95,880.04c0-4.34-2.85-7.37-6.92-7.37
			c-4.12,0-6.97,3.08-7.01,7.37c0.04,4.34,2.85,7.42,7.01,7.42C1000.1,887.46,1002.95,884.39,1002.95,880.04z"/>
		<path class="st9" d="M1036.53,882.67h-18.19c0.81,3.71,3.66,6.02,7.47,6.02c2.62,0,5.02-0.99,6.79-2.81l2.76,2.94
			c-2.35,2.58-5.79,4.07-9.96,4.07c-7.42,0-12.31-4.93-12.31-12.17c0-7.29,5.02-12.22,12.17-12.26
			C1033.72,868.46,1037.16,873.98,1036.53,882.67z M1032,878.86c-0.18-3.89-2.76-6.24-6.7-6.24c-3.8,0-6.47,2.4-7.06,6.24H1032z"/>
		<path class="st9" d="M1063.09,896.01c-1.49,3.8-4.21,5.7-7.83,5.7c-2.17,0-3.89-0.63-5.57-2.04l2.22-4.03
			c1.13,0.81,2.04,1.18,3.12,1.18c1.58,0,2.85-0.86,3.67-2.67l0.81-1.81l-9.96-23.71h5.39l7.19,18.24l6.7-18.24h5.2L1063.09,896.01z
			"/>
		<path class="st9" d="M1099.61,880.67c0,7.24-5.11,12.22-12.53,12.22c-7.47,0-12.58-4.98-12.58-12.22
			c0-7.29,5.11-12.22,12.58-12.22C1094.49,868.46,1099.61,873.39,1099.61,880.67z M1079.7,880.72c0,4.66,3.03,7.83,7.38,7.83
			c4.3,0,7.33-3.17,7.33-7.83c0-4.62-3.03-7.78-7.33-7.78C1082.73,872.94,1079.7,876.11,1079.7,880.72z"/>
		<path class="st9" d="M1126.89,892.71h-5.2v-4.71c-1.63,3.35-4.66,4.84-8.6,4.89c-5.52,0-8.82-3.53-8.82-9.28v-14.98h5.2v13.53
			c0,3.62,2.13,5.84,5.61,5.84c4.16-0.09,6.61-3.3,6.61-7.51v-11.86h5.2V892.71z"/>
		<path class="st9" d="M1138.43,863.93c0,0.91-0.32,1.63-0.81,2.35l-2.58,3.89h-2.67l1.72-3.89c-0.81-0.54-1.22-1.4-1.22-2.35
			c0-1.72,1.18-2.9,2.81-2.9C1137.12,861.04,1138.43,862.08,1138.43,863.93z"/>
		<path class="st9" d="M1149.47,873.43c1.63-3.26,4.53-4.98,8.33-4.98v4.98c-4.84-0.27-7.92,2.58-8.33,6.7v12.58h-5.2v-24.07h5.2
			V873.43z"/>
		<path class="st9" d="M1183.28,882.67h-18.19c0.81,3.71,3.67,6.02,7.47,6.02c2.62,0,5.02-0.99,6.79-2.81l2.76,2.94
			c-2.35,2.58-5.79,4.07-9.96,4.07c-7.42,0-12.31-4.93-12.31-12.17c0-7.29,5.02-12.22,12.17-12.26
			C1180.47,868.46,1183.91,873.98,1183.28,882.67z M1178.75,878.86c-0.18-3.89-2.76-6.24-6.7-6.24c-3.8,0-6.47,2.4-7.06,6.24
			H1178.75z"/>
		<path class="st9" d="M1200.61,892.71v-33.58h5.2v33.58H1200.61z"/>
		<path class="st9" d="M1236.58,880.67c0,7.24-5.11,12.22-12.53,12.22c-7.47,0-12.58-4.98-12.58-12.22
			c0-7.29,5.11-12.22,12.58-12.22C1231.47,868.46,1236.58,873.39,1236.58,880.67z M1216.67,880.72c0,4.66,3.03,7.83,7.38,7.83
			c4.3,0,7.33-3.17,7.33-7.83c0-4.62-3.03-7.78-7.33-7.78C1219.7,872.94,1216.67,876.11,1216.67,880.72z"/>
		<path class="st9" d="M1264.86,880.67c0,7.24-5.11,12.22-12.53,12.22c-7.47,0-12.58-4.98-12.58-12.22
			c0-7.29,5.11-12.22,12.58-12.22C1259.75,868.46,1264.86,873.39,1264.86,880.67z M1244.95,880.72c0,4.66,3.03,7.83,7.38,7.83
			c4.3,0,7.33-3.17,7.33-7.83c0-4.62-3.03-7.78-7.33-7.78C1247.98,872.94,1244.95,876.11,1244.95,880.72z"/>
		<path class="st9" d="M1275.72,885.97v6.74h-5.2v-33.58h5.2v20.27l10.63-10.77h5.97l-8.91,9.32l9.59,14.75h-6.15l-7.06-11.04
			L1275.72,885.97z"/>
		<path class="st9" d="M1302.83,861.76c0,1.81-1.31,3.12-3.03,3.12c-1.72,0-3.03-1.31-3.03-3.12c0-1.86,1.31-3.17,3.03-3.17
			C1301.51,858.59,1302.83,859.91,1302.83,861.76z M1297.22,892.71v-24.07h5.16v24.07H1297.22z"/>
		<path class="st9" d="M1333.1,877.73v14.98h-5.2v-13.53c0-3.62-2.17-5.84-5.79-5.84c-3.98,0.04-6.47,2.81-6.83,6.56v12.81h-5.2
			v-24.07h5.2v4.62c1.72-3.35,4.8-4.8,8.87-4.8C1329.75,868.46,1333.1,871.99,1333.1,877.73z"/>
		<path class="st9" d="M1361.79,890.36c0,6.92-4.93,11.27-12.49,11.27c-3.76,0-7.06-1.18-10-3.17l2.22-3.76
			c2.26,1.67,4.61,2.62,7.56,2.62c4.57,0,7.56-2.67,7.56-6.83v-3.03c-1.63,2.62-4.34,4.07-7.96,4.07c-6.52,0-10.86-4.71-10.86-11.63
			c0-6.79,4.3-11.4,10.68-11.45c3.71-0.04,6.47,1.45,8.14,4.07v-3.89h5.16V890.36z M1356.63,880.04c0-4.34-2.85-7.37-6.92-7.37
			c-4.12,0-6.97,3.08-7.01,7.37c0.04,4.34,2.85,7.42,7.01,7.42C1353.78,887.46,1356.63,884.39,1356.63,880.04z"/>
		<path class="st9" d="M1386.86,866.69v2.85h6.29v3.89h-6.29v19.28h-5.16v-19.28h-3.17v-3.89h3.17v-2.35c0-5.61,4.12-8.28,8.28-8.28
			c1.95,0,3.89,0.54,5.43,1.67l-1.99,3.98c-1-0.72-2.22-1.13-3.3-1.13C1388.35,863.44,1386.86,864.43,1386.86,866.69z"/>
		<path class="st9" d="M1418.62,880.67c0,7.24-5.11,12.22-12.53,12.22c-7.47,0-12.58-4.98-12.58-12.22
			c0-7.29,5.11-12.22,12.58-12.22C1413.51,868.46,1418.62,873.39,1418.62,880.67z M1398.71,880.72c0,4.66,3.03,7.83,7.38,7.83
			c4.3,0,7.33-3.17,7.33-7.83c0-4.62-3.03-7.78-7.33-7.78C1401.74,872.94,1398.71,876.11,1398.71,880.72z"/>
		<path class="st9" d="M1429.26,873.43c1.63-3.26,4.52-4.98,8.33-4.98v4.98c-4.84-0.27-7.92,2.58-8.33,6.7v12.58h-5.2v-24.07h5.2
			V873.43z"/>
		<path class="st9" d="M1445.82,890.09c0,1.76-1.22,3.03-2.85,3.03c-1.63,0-2.85-1.27-2.85-3.03c0-1.72,1.22-2.94,2.85-2.94
			C1444.6,887.15,1445.82,888.37,1445.82,890.09z"/>
	</g>
	<g>
		<path class="st9" d="M930.21,942.42v7.94h12.19v2.66h-12.19v8.29h14.09v2.62h-16.85v-24.18h16.4v2.66H930.21z"/>
		<path class="st9" d="M952.24,949.77c1.21-2.66,3.45-4.11,6.53-4.15v2.73c-3.83-0.07-6.22,2.31-6.53,5.9v9.67h-2.69v-18.2h2.69
			V949.77z"/>
		<path class="st9" d="M965.08,949.77c1.21-2.66,3.45-4.11,6.53-4.15v2.73c-3.83-0.07-6.22,2.31-6.53,5.9v9.67h-2.69v-18.2h2.69
			V949.77z"/>
		<path class="st9" d="M991.85,954.82c0,5.46-3.83,9.22-9.22,9.22c-5.39,0-9.22-3.76-9.22-9.22c0-5.42,3.83-9.15,9.22-9.15
			C988.01,945.66,991.85,949.39,991.85,954.82z M976.1,954.85c0,4.01,2.73,6.77,6.53,6.77c3.8,0,6.53-2.76,6.53-6.77
			c0-3.97-2.73-6.73-6.53-6.73C978.83,948.12,976.1,950.88,976.1,954.85z"/>
		<path class="st9" d="M999.27,949.77c1.21-2.66,3.45-4.11,6.53-4.15v2.73c-3.83-0.07-6.22,2.31-6.53,5.9v9.67h-2.69v-18.2h2.69
			V949.77z"/>
		<path class="st9" d="M1033.07,948.36l-1.49,1.9c-1.38-1.31-3.21-2.11-5.42-2.11c-3.77,0-6.46,2.73-6.46,6.7s2.69,6.73,6.46,6.73
			c2.38,0,4.35-0.83,5.63-2.35l1.55,1.66c-1.62,1.97-4.14,3.14-7.29,3.14c-5.28,0-9.01-3.76-9.01-9.19c0-5.42,3.76-9.19,9.01-9.19
			C1028.99,945.63,1031.41,946.63,1033.07,948.36z"/>
		<path class="st9" d="M1053.99,954.82c0,5.46-3.83,9.22-9.22,9.22c-5.39,0-9.22-3.76-9.22-9.22c0-5.42,3.83-9.15,9.22-9.15
			C1050.16,945.66,1053.99,949.39,1053.99,954.82z M1038.25,954.85c0,4.01,2.73,6.77,6.53,6.77c3.8,0,6.53-2.76,6.53-6.77
			c0-3.97-2.73-6.73-6.53-6.73C1040.97,948.12,1038.25,950.88,1038.25,954.85z"/>
		<path class="st9" d="M1075.44,963.93h-2.69v-3.9c-1.35,2.55-3.83,4.04-7.08,4.04c-5.18,0-8.77-3.83-8.77-9.26
			c0-5.46,3.59-9.22,8.74-9.22c3.25,0,5.77,1.49,7.11,4.07v-11.36h2.69V963.93z M1072.74,954.88c0-3.97-2.73-6.84-6.56-6.84
			c-3.87,0-6.6,2.87-6.6,6.84c0,3.94,2.73,6.77,6.6,6.77C1070.01,961.65,1072.74,958.82,1072.74,954.88z"/>
		<path class="st9" d="M1097.84,955.89h-14.85c0.48,3.56,3.07,5.8,6.6,5.8c2.24,0,4.21-0.8,5.63-2.28l1.48,1.59
			c-1.73,1.93-4.28,3.04-7.32,3.04c-5.35,0-9.05-3.76-9.05-9.19c0-5.42,3.73-9.19,9.01-9.19
			C1095.22,945.63,1098.12,949.7,1097.84,955.89z M1095.42,953.67c-0.17-3.49-2.52-5.7-6.08-5.7c-3.45,0-5.94,2.24-6.35,5.7H1095.42
			z"/>
		<path class="st9" d="M1104.29,952.16c0,1.04-0.72,1.8-1.66,1.8c-0.97,0-1.69-0.76-1.69-1.8c0-1.04,0.72-1.8,1.69-1.8
			C1103.57,950.36,1104.29,951.12,1104.29,952.16z M1104.29,962.41c0,1.04-0.72,1.79-1.66,1.79c-0.97,0-1.69-0.76-1.69-1.79
			s0.72-1.8,1.69-1.8C1103.57,960.62,1104.29,961.38,1104.29,962.41z"/>
		<path class="st9" d="M1128.09,954.92v-6.39h2.59v6.39h3.66v2.66h-3.66v6.36h-2.59v-6.36h-11.6v-2.28l8.67-15.54h2.73l-8.43,15.16
			H1128.09z"/>
		<path class="st9" d="M1157.13,951.84c0,7.81-3.56,12.16-9.98,12.16c-6.42,0-9.98-4.35-9.98-12.16c0-7.81,3.56-12.16,9.98-12.16
			C1153.57,939.69,1157.13,944.04,1157.13,951.84z M1139.96,951.84c0,6.53,2.49,9.81,7.18,9.81c4.7,0,7.18-3.28,7.18-9.81
			c0-6.56-2.49-9.81-7.18-9.81C1142.45,942.04,1139.96,945.28,1139.96,951.84z"/>
		<path class="st9" d="M1171.62,954.92v-6.39h2.59v6.39h3.66v2.66h-3.66v6.36h-2.59v-6.36h-11.6v-2.28l8.67-15.54h2.73l-8.43,15.16
			H1171.62z"/>
	</g>
</g>
</svg>
