<svg xmlns="http://www.w3.org/2000/svg" viewBox="0 0 380.01 332.3"><defs><style>.cls-1{fill:#5ac2cd;}.cls-2{font-size:60px;fill:#fff;font-family:Pacifico-Bold, Pacifico;font-weight:700;}.cls-3{fill-opacity:0;stroke:#000;stroke-opacity:0;}</style></defs><g id="Layer_2" data-name="Layer 2"><g id="Layer_1-2" data-name="Layer 1"><g id="Blue_Logo" data-name="Blue Logo"><path class="cls-1" d="M333.69,116.28c-7.49,51.54-84.79,213.89-144,216-57,2-154.67-185.23-144-243C60,11.66,130.62-.12,185.93,0,238,.12,349,10.6,333.69,116.28Z"/><text class="cls-2" transform="translate(99.77 169.02)">Nashville</text><path id="aTZImEIR" d="M64.42,83.72l.79.1L66,84l.71.17.67.21.63.25.59.29.56.33.51.37.48.4.44.44.4.47.36.52.32.56.28.59.25.64.2.66.18.71.13.74.09.78.06.82,0,.86v.41l0,.18,0,.37,0,.16,0,.16,0,.14-.13.26-.06.12-.09.11-.09.11-.09.08-.11.09L72,96l-.11.07-.13,0-.13,0-.13,0-.14,0-.16,0H55.1v-.13h0v3.76l0,.43.07.41.1.39.13.37.16.35.17.32.23.31.23.29.28.27.3.25.32.22.36.21.39.19.41.17.44.16.47.12.51.11.53.09.55.06.59.06.62,0h1.79l.21,0h.22l.42,0h.2l.2,0,.38,0,.17,0,.19,0,.52-.11.17,0,.16,0,.15,0,.15-.06.15,0,.09,0,.08,0,.1,0,.09,0,.11,0,.1,0,.11,0,.12,0,.37-.2.14-.08.13-.07.31-.17.14-.09.17-.1.16-.11.34-.22.18-.12.19-.12.19-.13.22-.21.23-.19.11-.08.09-.08.11-.08.09-.07.17-.14.17-.11.08,0,.07,0,.07,0,.13-.06.06,0,.06,0h0l.1,0h.15l.19,0h.09l.09,0,.09,0,.07,0,.13.08.07,0,.11.11,0,0,0,.07.07.15,0,.09,0,.09,0,.1v.09l0,.11v.47l0,.12,0,.11-.12.37,0,.12-.06.12-.06.13-.08.12-.08.12-.09.12-.19.24-.23.25-.24.25-.29.24-.15.12-.15.13-.26.19-.28.19-.28.18-.3.19-.3.16-.32.16-.33.14-.34.14-.35.13-.37.13-.38.11-.39.1-.4.11-.41.08-.85.16-.44,0-.46.06-.46,0-.48,0-.49,0H61.64l-.85,0-.8-.08-.77-.11-.73-.14-.69-.16-.64-.21-.62-.23L56,106.4l-.54-.29-.49-.32-.46-.36-.41-.38-.38-.42-.34-.45-.29-.48-.26-.51-.23-.54-.17-.57-.14-.6-.1-.64-.06-.67,0-.7V91l0-.25,0-.23,0-.23,0-.24,0-.23.06-.23.06-.21.07-.23.08-.22.08-.21.1-.21.2-.42.13-.21.12-.2.14-.2.14-.19.15-.18.16-.19.34-.37.18-.18.25-.23.53-.44.28-.2.29-.19.31-.18.32-.17.32-.16.34-.14.35-.14.36-.12.37-.12.39-.11.39-.1.41-.08.4-.08.43,0,.43-.06.44,0,.45,0,.47,0,.47,0h.48l.87,0Zm-3.68,2.9-.73.12-.71.18-.69.23-.66.28-.63.32-.58.45-.49.47-.42.51-.33.54-.24.55-.15.59,0,.62v1.74H69.84l-.16-1.77L69.22,90l-.76-1.24-1.09-.95L66,87.06l-1.7-.4-2-.14-.79,0Z"/><path id="aTZImEIR-2" data-name="aTZImEIR" class="cls-3" d="M64.42,83.72l.79.1L66,84l.71.17.67.21.63.25.59.29.56.33.51.37.48.4.44.44.4.47.36.52.32.56.28.59.25.64.2.66.18.71.13.74.09.78.06.82,0,.86v.41l0,.18,0,.37,0,.16,0,.16,0,.14-.13.26-.06.12-.09.11-.09.11-.09.08-.11.09L72,96l-.11.07-.13,0-.13,0-.13,0-.14,0-.16,0H55.1v-.13h0v3.76l0,.43.07.41.1.39.13.37.16.35.17.32.23.31.23.29.28.27.3.25.32.22.36.21.39.19.41.17.44.16.47.12.51.11.53.09.55.06.59.06.62,0h1.79l.21,0h.22l.42,0h.2l.2,0,.38,0,.17,0,.19,0,.52-.11.17,0,.16,0,.15,0,.15-.06.15,0,.09,0,.08,0,.1,0,.09,0,.11,0,.1,0,.11,0,.12,0,.37-.2.14-.08.13-.07.31-.17.14-.09.17-.1.16-.11.34-.22.18-.12.19-.12.19-.13.22-.21.23-.19.11-.08.09-.08.11-.08.09-.07.17-.14.17-.11.08,0,.07,0,.07,0,.13-.06.06,0,.06,0h0l.1,0h.15l.19,0h.09l.09,0,.09,0,.07,0,.13.08.07,0,.11.11,0,0,0,.07.07.15,0,.09,0,.09,0,.1v.09l0,.11v.47l0,.12,0,.11-.12.37,0,.12-.06.12-.06.13-.08.12-.08.12-.09.12-.19.24-.23.25-.24.25-.29.24-.15.12-.15.13-.26.19-.28.19-.28.18-.3.19-.3.16-.32.16-.33.14-.34.14-.35.13-.37.13-.38.11-.39.1-.4.11-.41.08-.85.16-.44,0-.46.06-.46,0-.48,0-.49,0H61.64l-.85,0-.8-.08-.77-.11-.73-.14-.69-.16-.64-.21-.62-.23L56,106.4l-.54-.29-.49-.32-.46-.36-.41-.38-.38-.42-.34-.45-.29-.48-.26-.51-.23-.54-.17-.57-.14-.6-.1-.64-.06-.67,0-.7V91l0-.25,0-.23,0-.23,0-.24,0-.23.06-.23.06-.21.07-.23.08-.22.08-.21.1-.21.2-.42.13-.21.12-.2.14-.2.14-.19.15-.18.16-.19.34-.37.18-.18.25-.23.53-.44.28-.2.29-.19.31-.18.32-.17.32-.16.34-.14.35-.14.36-.12.37-.12.39-.11.39-.1.41-.08.4-.08.43,0,.43-.06.44,0,.45,0,.47,0,.47,0h.48l.87,0Zm-3.68,2.9-.73.12-.71.18-.69.23-.66.28-.63.32-.58.45-.49.47-.42.51-.33.54-.24.55-.15.59,0,.62v1.74H69.84l-.16-1.77L69.22,90l-.76-1.24-1.09-.95L66,87.06l-1.7-.4-2-.14-.79,0Z"/><path id="a1reJuC17o" d="M367.9,74a1.26,1.26,0,0,0-.42.82c0,.52.61,1.23,1.75,2.4a22.36,22.36,0,0,1,7.1,16.87c0,7.45-2.52,13.43-7.39,18.07-1,.92-1.45,1.64-1.45,2.25a1.81,1.81,0,0,0,.42.92,1.46,1.46,0,0,0,.91.42c1.13,0,2.71-1.33,4.77-3.92,4-4.91,5.82-10.34,5.92-17.73s-2.23-12.41-6.77-17.59c-1.63-1.85-3-2.82-3.92-2.82A1.69,1.69,0,0,0,367.9,74Z"/><path id="a1reJuC17o-2" data-name="a1reJuC17o" class="cls-3" d="M367.9,74a1.26,1.26,0,0,0-.42.82c0,.52.61,1.23,1.75,2.4a22.36,22.36,0,0,1,7.1,16.87c0,7.45-2.52,13.43-7.39,18.07-1,.92-1.45,1.64-1.45,2.25a1.81,1.81,0,0,0,.42.92,1.46,1.46,0,0,0,.91.42c1.13,0,2.71-1.33,4.77-3.92,4-4.91,5.82-10.34,5.92-17.73s-2.23-12.41-6.77-17.59c-1.63-1.85-3-2.82-3.92-2.82A1.69,1.69,0,0,0,367.9,74Z"/><path id="b3CiUzYJD1" d="M26.14,85.56c0-1,.62-1.43,1.85-1.43h6c1,0,1.53.92,1.53,2.6,1.85-2,3.82-3.12,5.88-3.12a5.19,5.19,0,0,1,4,1.54,5.64,5.64,0,0,1,1.44,4.14c0,1.13-.52,1.74-1.44,1.74-.61,0-1-.41-1.22-1.13a15.47,15.47,0,0,0-.72-2.26,2.5,2.5,0,0,0-2.26-1.12A4.92,4.92,0,0,0,38,87.75a13.35,13.35,0,0,0-2.5,2.69v13.85h5.57c1.23,0,1.84.52,1.84,1.44s-.61,1.54-1.84,1.54H27.85c-1.23,0-1.85-.52-1.85-1.43s.62-1.45,1.85-1.45h4.54v-.13h0V87H28C26.76,87,26.14,86.49,26.14,85.56Z"/><path id="b3CiUzYJD1-2" data-name="b3CiUzYJD1" class="cls-3" d="M26.14,85.56c0-1,.62-1.43,1.85-1.43h6c1,0,1.53.92,1.53,2.6,1.85-2,3.82-3.12,5.88-3.12a5.19,5.19,0,0,1,4,1.54,5.64,5.64,0,0,1,1.44,4.14c0,1.13-.52,1.74-1.44,1.74-.61,0-1-.41-1.22-1.13a15.47,15.47,0,0,0-.72-2.26,2.5,2.5,0,0,0-2.26-1.12A4.92,4.92,0,0,0,38,87.75a13.35,13.35,0,0,0-2.5,2.69v13.85h5.57c1.23,0,1.84.52,1.84,1.44s-.61,1.54-1.84,1.54H27.85c-1.23,0-1.85-.52-1.85-1.43s.62-1.45,1.85-1.45h4.54v-.13h0V87H28C26.76,87,26.14,86.49,26.14,85.56Z"/><path id="a27fjRDZiD" d="M353.63,95.43c-1.78-.46,5.52-9.08-7.45-19.41,0,0,1.7,5.41-6.89,17.48s3.82,19.26,3.82,19.26-5.82-3.11.95-14.15a65.18,65.18,0,0,0,4.77-7.91s1.74,2.46.83,7.79c-1.36,8.06,5.9,5.75,6,5.87,2.54,3-2.1,8.23-2.38,8.4s13.24-8.14,3.63-20.62C356.26,92.8,355.41,95.88,353.63,95.43Z"/><path id="a27fjRDZiD-2" data-name="a27fjRDZiD" class="cls-3" d="M353.63,95.43c-1.78-.46,5.52-9.08-7.45-19.41,0,0,1.7,5.41-6.89,17.48s3.82,19.26,3.82,19.26-5.82-3.11.95-14.15a65.18,65.18,0,0,0,4.77-7.91s1.74,2.46.83,7.79c-1.36,8.06,5.9,5.75,6,5.87,2.54,3-2.1,8.23-2.38,8.4s13.24-8.14,3.63-20.62C356.26,92.8,355.41,95.88,353.63,95.43Z"/><path id="fO2LoynhC" d="M2.24,84.16H5.57V81.25c0-5.06,2.59-7.56,7.65-7.56a10.94,10.94,0,0,1,5.16,1.14,5.27,5.27,0,0,1,2.71,4.65c0,1.33-.52,1.84-1.44,1.84a1.75,1.75,0,0,1-1.55-1.13,9.72,9.72,0,0,0-1-2.39c-.61-.72-1.85-1.12-3.63-1.12-3.1,0-4.64,1.53-4.64,4.64v2.81h6c1.33,0,1.95.51,1.95,1.43S16.12,87,14.79,87h-6v18.9c0,1.13-.52,1.74-1.44,1.74S5.94,107,5.94,105.9V87H2.24C1.12,87,.5,86.52.5,85.6S1.12,84.16,2.24,84.16Z"/><path id="fO2LoynhC-2" data-name="fO2LoynhC" class="cls-3" d="M2.24,84.16H5.57V81.25c0-5.06,2.59-7.56,7.65-7.56a10.94,10.94,0,0,1,5.16,1.14,5.27,5.27,0,0,1,2.71,4.65c0,1.33-.52,1.84-1.44,1.84a1.75,1.75,0,0,1-1.55-1.13,9.72,9.72,0,0,0-1-2.39c-.61-.72-1.85-1.12-3.63-1.12-3.1,0-4.64,1.53-4.64,4.64v2.81h6c1.33,0,1.95.51,1.95,1.43S16.12,87,14.79,87h-6v18.9c0,1.13-.52,1.74-1.44,1.74S5.94,107,5.94,105.9V87H2.24C1.12,87,.5,86.52.5,85.6S1.12,84.16,2.24,84.16Z"/><path id="ovQ1ILSSG" d="M328.76,74a1.26,1.26,0,0,1,.42.81c0,.53-.61,1.23-1.75,2.4a22.41,22.41,0,0,0-7.1,16.88c0,7.45,2.52,13.43,7.39,18.07,1,.91,1.45,1.63,1.45,2.25a1.78,1.78,0,0,1-.42.91,1.42,1.42,0,0,1-.91.43c-1.13,0-2.71-1.33-4.77-3.92-4-4.92-5.82-10.34-5.92-17.74s2.23-12.41,6.77-17.59c1.63-1.85,3-2.81,3.92-2.81A1.61,1.61,0,0,1,328.76,74Z"/><path id="ovQ1ILSSG-2" data-name="ovQ1ILSSG" class="cls-3" d="M328.76,74a1.26,1.26,0,0,1,.42.81c0,.53-.61,1.23-1.75,2.4a22.41,22.41,0,0,0-7.1,16.88c0,7.45,2.52,13.43,7.39,18.07,1,.91,1.45,1.63,1.45,2.25a1.78,1.78,0,0,1-.42.91,1.42,1.42,0,0,1-.91.43c-1.13,0-2.71-1.33-4.77-3.92-4-4.92-5.82-10.34-5.92-17.74s2.23-12.41,6.77-17.59c1.63-1.85,3-2.81,3.92-2.81A1.61,1.61,0,0,1,328.76,74Z"/><path id="bidTnXnUH" d="M90.37,83.72l.79.1.74.14.71.17.68.21.63.25.59.29.55.33.51.37.49.4.44.44.4.47.35.52.33.56.28.59.25.64.2.66.18.71.13.74.09.78.06.82,0,.86v.41l0,.18-.06.37,0,.16,0,.16-.05.14-.13.26-.07.12-.09.11-.08.11-.09.08L98,96l-.1.06-.12.07-.12,0-.13,0-.14,0-.14,0-.15,0h-16v-.13h0v3.31l0,.45,0,.43.08.41.09.39.12.37.17.35.17.32.22.31.25.29.26.27.31.25.32.22.36.21.39.19.4.17.45.16.47.12.5.11.54.09.55.06.59.06.61,0h1.8l.21,0h.22l.42,0h.2l.2,0,.56-.08.18,0,.17,0,.19,0,.16,0,.17,0,.16,0,.15,0,.15-.06.15,0,.09,0,.08,0,.1,0,.09,0,.1,0,.11,0,.11,0,.11,0,.25-.13.14-.07.13-.08.14-.07.14-.09.15-.08.15-.09.16-.1.16-.11.35-.22.18-.12.19-.12.19-.13.22-.21.23-.19.11-.08.09-.08.1-.08.1-.07.17-.14.17-.11.07,0,.08,0,.07,0,.13-.06.06,0,0,0h0l.1,0h.15l.19,0h.09l.08,0,.09,0,.08,0,.13.08.07,0,.11.11,0,0,0,.07.07.15,0,.09,0,.09,0,.1v.31l0,.12,0,.12v.12l0,.12,0,.11-.12.37,0,.12-.06.12-.06.13-.16.24-.09.12-.19.24-.23.25-.24.25-.29.24-.15.12-.15.13-.27.19-.27.19-.29.18-.29.19-.3.16-.32.16-.33.14-.35.14-.35.13-.37.13-.38.11-.39.1-.39.11-.41.08-.85.16-.45,0-.45.06-.46,0-.48,0-1,0H87.59l-.85,0-.8-.08-.77-.11-.73-.14-.68-.16-.65-.21-.62-.23-.57-.26-.53-.29-.49-.32-.46-.36-.41-.38-.38-.42-.34-.45-.3-.48-.25-.51-.22-.54-.18-.57-.14-.6-.1-.64-.06-.67,0-.7V91l0-.25,0-.23,0-.23,0-.24,0-.23.06-.23.05-.21.08-.23.08-.22.08-.21.1-.21.2-.42.13-.21.12-.2.14-.2.14-.19.15-.18.16-.19.34-.37.18-.18.24-.23.54-.44.28-.2.29-.19.31-.18.32-.17.32-.16.34-.14.35-.14.36-.12.37-.12.39-.11.39-.1L85.1,84l.4-.08.43,0,.43-.06.44,0,.45,0,.47,0,.47,0h.48l.86,0Zm-3.69,2.9-.72.12-.72.18-.68.23-.66.28-.63.32-.61.45-.51.47-.42.51-.31.54-.23.55-.13.59,0,.62v1.74H95.78l-.16-1.77L95.17,90l-.77-1.24-1.08-.95-1.38-.7-1.71-.4-2-.14-.79,0Z"/><path id="bidTnXnUH-2" data-name="bidTnXnUH" class="cls-3" d="M90.37,83.72l.79.1.74.14.71.17.68.21.63.25.59.29.55.33.51.37.49.4.44.44.4.47.35.52.33.56.28.59.25.64.2.66.18.71.13.74.09.78.06.82,0,.86v.41l0,.18-.06.37,0,.16,0,.16-.05.14-.13.26-.07.12-.09.11-.08.11-.09.08L98,96l-.1.06-.12.07-.12,0-.13,0-.14,0-.14,0-.15,0h-16v-.13h0v3.31l0,.45,0,.43.08.41.09.39.12.37.17.35.17.32.22.31.25.29.26.27.31.25.32.22.36.21.39.19.4.17.45.16.47.12.5.11.54.09.55.06.59.06.61,0h1.8l.21,0h.22l.42,0h.2l.2,0,.56-.08.18,0,.17,0,.19,0,.16,0,.17,0,.16,0,.15,0,.15-.06.15,0,.09,0,.08,0,.1,0,.09,0,.1,0,.11,0,.11,0,.11,0,.25-.13.14-.07.13-.08.14-.07.14-.09.15-.08.15-.09.16-.1.16-.11.35-.22.18-.12.19-.12.19-.13.22-.21.23-.19.11-.08.09-.08.1-.08.1-.07.17-.14.17-.11.07,0,.08,0,.07,0,.13-.06.06,0,0,0h0l.1,0h.15l.19,0h.09l.08,0,.09,0,.08,0,.13.08.07,0,.11.11,0,0,0,.07.07.15,0,.09,0,.09,0,.1v.31l0,.12,0,.12v.12l0,.12,0,.11-.12.37,0,.12-.06.12-.06.13-.16.24-.09.12-.19.24-.23.25-.24.25-.29.24-.15.12-.15.13-.27.19-.27.19-.29.18-.29.19-.3.16-.32.16-.33.14-.35.14-.35.13-.37.13-.38.11-.39.1-.39.11-.41.08-.85.16-.45,0-.45.06-.46,0-.48,0-1,0H87.59l-.85,0-.8-.08-.77-.11-.73-.14-.68-.16-.65-.21-.62-.23-.57-.26-.53-.29-.49-.32-.46-.36-.41-.38-.38-.42-.34-.45-.3-.48-.25-.51-.22-.54-.18-.57-.14-.6-.1-.64-.06-.67,0-.7V91l0-.25,0-.23,0-.23,0-.24,0-.23.06-.23.05-.21.08-.23.08-.22.08-.21.1-.21.2-.42.13-.21.12-.2.14-.2.14-.19.15-.18.16-.19.34-.37.18-.18.24-.23.54-.44.28-.2.29-.19.31-.18.32-.17.32-.16.34-.14.35-.14.36-.12.37-.12.39-.11.39-.1L85.1,84l.4-.08.43,0,.43-.06.44,0,.45,0,.47,0,.47,0h.48l.86,0Zm-3.69,2.9-.72.12-.72.18-.68.23-.66.28-.63.32-.61.45-.51.47-.42.51-.31.54-.23.55-.13.59,0,.62v1.74H95.78l-.16-1.77L95.17,90l-.77-1.24-1.08-.95-1.38-.7-1.71-.4-2-.14-.79,0Z"/><path id="cNUomkEDc" d="M287.08,83.49l.06,0,.11,0,.06,0,.05,0,.05,0,.06,0,0,0,.06,0,0,0,.06,0,.09.12.1.13.05.08,0,.06,0,.09.05.07v.08l0,.15,0,.09,0,.07,0,.08,0,.07,0,.08,0,.09.08.22,0,.09.06.15,0,.07,0,.08,0,.15,0,.07V86l0,.07.46-.22.89-.41.42-.2.43-.17.41-.18.4-.16.4-.15.39-.13.38-.13.37-.11.35-.12.37-.09.68-.17.33-.07.31-.06.31,0,.31,0,.29,0,.29,0h.28l.84,0,.8.05.76.08.71.11.69.16.64.18.6.21.56.25.53.27.48.32.44.35.41.37.37.4.33.45.29.47.25.51.22.52.17.57.13.6.11.62.05.66,0,.69v8.92l0,.32,0,.33,0,.31-.05.31-.07.29-.07.3-.09.28-.09.28-.11.26-.11.27-.13.25-.15.26-.15.24-.16.24-.17.23-.18.23-.2.21-.21.22-.2.21-.23.2-.24.19-.22.18-.21.15-.24.15-.24.14-.24.13-.25.13-.26.12-.27.1-.27.11-.57.19-.61.15-.3.06-.32.07-.32,0-.67.08-.34,0-.35,0h-1.58l-.43,0-.41,0-.42,0-.41,0-.39-.07-.8-.17-.39-.11-.38-.1-.38-.13-.37-.13-.36-.15-.37-.15-.35-.17-.35-.18-.35-.19-.35-.2-.34-.21-.33-.23-.33-.23v10.08l0,.18,0,.16,0,.17,0,.15,0,.14-.05.14-.05.13-.06.12-.06.1-.07.1-.07.09-.09.09-.08.07-.1.07-.09,0-.11,0-.1,0-.11,0-.12,0h-.37l-.11,0-.1,0-.11,0-.19-.11-.08-.06-.09-.08-.07-.1-.07-.09-.07-.1-.05-.12-.05-.12-.05-.14,0-.14,0-.16,0-.16,0-.18,0-.19v-30l0-.17,0-.16,0-.15,0-.14,0-.14,0-.13.09-.23.06-.09.07-.1.06-.08.08-.07.08-.07.08-.05.09,0,.19-.06.11,0H287l.06,0Zm8.12,3.15-.43,0-.41,0-.4.05-.38.06-.37.07-.35.1-.34.1-.33.12-.32.13-.27.12-.29.15-.28.17-.29.2-.29.23-.31.25-.31.27-.32.29-.33.32-.36.34-.36.36v11.8h.1v0l.85.5.83.46.79.42.77.35.74.32.72.25.69.22.65.17.64.12.6.07.58,0h.5l.48,0,.47-.05.45,0,.44-.07.41-.1.4-.1.38-.13.36-.14.34-.18.32-.17.37-.24.33-.26.3-.27.26-.3.21-.31.18-.33.14-.35.12-.36.08-.39,0-.41,0-.41V91.48l0-.5-.05-.46-.09-.43-.12-.4-.17-.38-.2-.36-.25-.33-.27-.31-.33-.27-.36-.26-.39-.23-.32-.16-.35-.15-.36-.13-.38-.11-.4-.11-.43-.08-.44-.07-.47,0-.48,0-.5,0H295.2Z"/><path id="cNUomkEDc-2" data-name="cNUomkEDc" class="cls-3" d="M287.08,83.49l.06,0,.11,0,.06,0,.05,0,.05,0,.06,0,0,0,.06,0,0,0,.06,0,.09.12.1.13.05.08,0,.06,0,.09.05.07v.08l0,.15,0,.09,0,.07,0,.08,0,.07,0,.08,0,.09.08.22,0,.09.06.15,0,.07,0,.08,0,.15,0,.07V86l0,.07.46-.22.89-.41.42-.2.43-.17.41-.18.4-.16.4-.15.39-.13.38-.13.37-.11.35-.12.37-.09.68-.17.33-.07.31-.06.31,0,.31,0,.29,0,.29,0h.28l.84,0,.8.05.76.08.71.11.69.16.64.18.6.21.56.25.53.27.48.32.44.35.41.37.37.4.33.45.29.47.25.51.22.52.17.57.13.6.11.62.05.66,0,.69v8.92l0,.32,0,.33,0,.31-.05.31-.07.29-.07.3-.09.28-.09.28-.11.26-.11.27-.13.25-.15.26-.15.24-.16.24-.17.23-.18.23-.2.21-.21.22-.2.21-.23.2-.24.19-.22.18-.21.15-.24.15-.24.14-.24.13-.25.13-.26.12-.27.1-.27.11-.57.19-.61.15-.3.06-.32.07-.32,0-.67.08-.34,0-.35,0h-1.58l-.43,0-.41,0-.42,0-.41,0-.39-.07-.8-.17-.39-.11-.38-.1-.38-.13-.37-.13-.36-.15-.37-.15-.35-.17-.35-.18-.35-.19-.35-.2-.34-.21-.33-.23-.33-.23v10.08l0,.18,0,.16,0,.17,0,.15,0,.14-.05.14-.05.13-.06.12-.06.1-.07.1-.07.09-.09.09-.08.07-.1.07-.09,0-.11,0-.1,0-.11,0-.12,0h-.37l-.11,0-.1,0-.11,0-.19-.11-.08-.06-.09-.08-.07-.1-.07-.09-.07-.1-.05-.12-.05-.12-.05-.14,0-.14,0-.16,0-.16,0-.18,0-.19v-30l0-.17,0-.16,0-.15,0-.14,0-.14,0-.13.09-.23.06-.09.07-.1.06-.08.08-.07.08-.07.08-.05.09,0,.19-.06.11,0H287l.06,0Zm8.12,3.15-.43,0-.41,0-.4.05-.38.06-.37.07-.35.1-.34.1-.33.12-.32.13-.27.12-.29.15-.28.17-.29.2-.29.23-.31.25-.31.27-.32.29-.33.32-.36.34-.36.36v11.8h.1v0l.85.5.83.46.79.42.77.35.74.32.72.25.69.22.65.17.64.12.6.07.58,0h.5l.48,0,.47-.05.45,0,.44-.07.41-.1.4-.1.38-.13.36-.14.34-.18.32-.17.37-.24.33-.26.3-.27.26-.3.21-.31.18-.33.14-.35.12-.36.08-.39,0-.41,0-.41V91.48l0-.5-.05-.46-.09-.43-.12-.4-.17-.38-.2-.36-.25-.33-.27-.31-.33-.27-.36-.26-.39-.23-.32-.16-.35-.15-.36-.13-.38-.11-.4-.11-.43-.08-.44-.07-.47,0-.48,0-.5,0H295.2Z"/><path id="b5Iz46OVaX" d="M122,76.87a7.68,7.68,0,0,1,3.11,6.4c0,1.23-.51,1.85-1.54,1.85-.72,0-1.23-.62-1.54-1.85A10.8,10.8,0,0,0,121,80.36C120,78.72,118,78,115,78c-2.7,0-4.55.62-5.67,2s-1.65,3.11-1.65,5.88V96.53c0,2.81.62,4.76,1.74,6s3.12,2,5.79,2c4,0,6.39-1.43,6.9-4.23.2-1,.31-1.54.31-1.65a1.2,1.2,0,0,1,1.23-.92c1,0,1.54.62,1.54,1.85a7,7,0,0,1-3.22,6.09,12.12,12.12,0,0,1-6.8,1.75c-3.31,0-5.88-.73-7.76-2.27-2.19-1.43-3.11-3.89-3.11-7.11h0V85.15C104.26,78.34,107.75,75,115,75A12.48,12.48,0,0,1,122,76.87Z"/><path id="b5Iz46OVaX-2" data-name="b5Iz46OVaX" class="cls-3" d="M122,76.87a7.68,7.68,0,0,1,3.11,6.4c0,1.23-.51,1.85-1.54,1.85-.72,0-1.23-.62-1.54-1.85A10.8,10.8,0,0,0,121,80.36C120,78.72,118,78,115,78c-2.7,0-4.55.62-5.67,2s-1.65,3.11-1.65,5.88V96.53c0,2.81.62,4.76,1.74,6s3.12,2,5.79,2c4,0,6.39-1.43,6.9-4.23.2-1,.31-1.54.31-1.65a1.2,1.2,0,0,1,1.23-.92c1,0,1.54.62,1.54,1.85a7,7,0,0,1-3.22,6.09,12.12,12.12,0,0,1-6.8,1.75c-3.31,0-5.88-.73-7.76-2.27-2.19-1.43-3.11-3.89-3.11-7.11h0V85.15C104.26,78.34,107.75,75,115,75A12.48,12.48,0,0,1,122,76.87Z"/><path id="a1Z8HXsFzs" d="M270.47,86.21a6.16,6.16,0,0,1,2.27-1.95,6.08,6.08,0,0,1,2.89-.61c3.53,0,5.37,1.74,5.37,5.16v16.75c0,1.44-.51,2-1.53,2s-1.44-.61-1.44-2V89.87c0-2.15-.92-3.32-2.7-3.32a4.9,4.9,0,0,0-3.82,2.4V105.7c0,1.43-.52,2-1.45,2s-1.43-.62-1.43-2V90.21c0-2.4-1-3.52-2.91-3.52-1.22,0-2.39.82-3.62,2.39v16.65c0,1.44-.51,2.06-1.54,2.06s-1.43-.62-1.43-2.06V85.18c0-1,.41-1.43,1.23-1.43.41,0,.81.3,1,.92a2.44,2.44,0,0,1,.31,1.4h0c1-1,1.58-1.64,1.84-1.85a4.68,4.68,0,0,1,2.61-.61A5.2,5.2,0,0,1,270.47,86.21Z"/><path id="a1Z8HXsFzs-2" data-name="a1Z8HXsFzs" class="cls-3" d="M270.47,86.21a6.16,6.16,0,0,1,2.27-1.95,6.08,6.08,0,0,1,2.89-.61c3.53,0,5.37,1.74,5.37,5.16v16.75c0,1.44-.51,2-1.53,2s-1.44-.61-1.44-2V89.87c0-2.15-.92-3.32-2.7-3.32a4.9,4.9,0,0,0-3.82,2.4V105.7c0,1.43-.52,2-1.45,2s-1.43-.62-1.43-2V90.21c0-2.4-1-3.52-2.91-3.52-1.22,0-2.39.82-3.62,2.39v16.65c0,1.44-.51,2.06-1.54,2.06s-1.43-.62-1.43-2.06V85.18c0-1,.41-1.43,1.23-1.43.41,0,.81.3,1,.92a2.44,2.44,0,0,1,.31,1.4h0c1-1,1.58-1.64,1.84-1.85a4.68,4.68,0,0,1,2.61-.61A5.2,5.2,0,0,1,270.47,86.21Z"/><path id="c704sxfG2q" d="M142.73,83.7l1.08.16,1,.2.93.28.86.33.77.4.7.45.61.52.53.57.45.64.37.69.29.76.21.83.12.87,0,.93v8.49l0,.94-.12.87-.2.82-.28.76-.37.69-.43.63-.52.58-.6.52-.68.46-.76.4-.84.33-.92.28-1,.2-1.08.15-1.16.1-1.23,0h-1.31l-1.22-.08-1.13-.14-1.05-.2-.95-.26-.87-.33-.79-.4-.7-.45-.61-.52-.54-.58-.45-.64-.37-.7-.28-.77-.2-.83-.12-.89,0-1V91.33l0-.93.12-.87.21-.83.28-.76.37-.69.45-.64.53-.57.62-.52.69-.45.78-.4.85-.33.94-.28,1-.2,1.09-.16,1.17-.09,1.26,0,1.26,0Zm-4.83,2.92-1,.17-.85.24-.76.3-.66.38-.56.43-.46.52-.36.56-.25.64-.16.71,0,.76v8.49l0,.77.16.7.25.64.37.57.47.5.57.44.67.36.78.3.88.22,1,.16,1.09.07h2.35l1.06-.07,1-.14.86-.22.77-.29.67-.35.56-.43.47-.5.36-.58.25-.64.16-.72,0-.79V91.33l0-.76-.16-.71-.25-.64-.37-.56-.48-.52-.56-.43-.68-.38-.79-.3-.9-.24-1-.17-1.11-.1-1.22,0-1.13,0Z"/><path id="c704sxfG2q-2" data-name="c704sxfG2q" class="cls-3" d="M142.73,83.7l1.08.16,1,.2.93.28.86.33.77.4.7.45.61.52.53.57.45.64.37.69.29.76.21.83.12.87,0,.93v8.49l0,.94-.12.87-.2.82-.28.76-.37.69-.43.63-.52.58-.6.52-.68.46-.76.4-.84.33-.92.28-1,.2-1.08.15-1.16.1-1.23,0h-1.31l-1.22-.08-1.13-.14-1.05-.2-.95-.26-.87-.33-.79-.4-.7-.45-.61-.52-.54-.58-.45-.64-.37-.7-.28-.77-.2-.83-.12-.89,0-1V91.33l0-.93.12-.87.21-.83.28-.76.37-.69.45-.64.53-.57.62-.52.69-.45.78-.4.85-.33.94-.28,1-.2,1.09-.16,1.17-.09,1.26,0,1.26,0Zm-4.83,2.92-1,.17-.85.24-.76.3-.66.38-.56.43-.46.52-.36.56-.25.64-.16.71,0,.76v8.49l0,.77.16.7.25.64.37.57.47.5.57.44.67.36.78.3.88.22,1,.16,1.09.07h2.35l1.06-.07,1-.14.86-.22.77-.29.67-.35.56-.43.47-.5.36-.58.25-.64.16-.72,0-.79V91.33l0-.76-.16-.71-.25-.64-.37-.56-.48-.52-.56-.43-.68-.38-.79-.3-.9-.24-1-.17-1.11-.1-1.22,0-1.13,0Z"/><path id="a2dF9UjJYG" d="M244.61,83.39l.35,0,.33,0,.32,0,.32,0,.31,0,.3,0,.3,0,.28.06.27,0,.27.07.26.06.25.06.26.08.24.07.22.08.23.08.22.1.22.08.2.11.2.09.19.11.19.11.21.15.2.16.18.16.19.19.17.17.17.2.16.2.15.21.14.22.14.22.12.23.12.24.21.51.09.27.09.26.07.28.07.29.06.29.05.31,0,.31,0,.32,0,.32,0,.33V102l0,.27,0,.24v.13l0,.11,0,.1,0,.12,0,.1.06.19,0,.1.11.25,0,.08,0,.07.05.07.11.13.13.13h0l0,0v0h0l0,0,.08,0,0,0,.1,0,.06,0,0,0,.2.09.23.09.08,0,.09,0,.09,0,.08,0,.09,0,.11,0,.05,0,.12.06,0,0,.05,0,.1.07,0,0,0,0,0,0,0,.06,0,0,.05.12,0,.07,0,0v.08l0,.06v.08l0,.08v.63l0,.09v.08l0,.08,0,.08,0,.08,0,.06,0,.07,0,.06-.09.11-.05,0-.06,0-.2.11-.15.06-.08,0H255l-.19,0h-.47l-.19,0,0,0H254l-.05,0h-.06l-.2-.06-.07,0-.07,0h-.07l-.09,0-.08,0-.08,0-.27-.09-.12,0-.12,0-.12,0-.22-.07-.11,0-.1,0-.1,0-.08,0-.1,0-.07,0-.09,0-.07,0-.07,0-.07,0-.11,0-.14-.05h0l0,0h-.15l-.07,0-.05,0-.06,0,0,0-.05,0,0,0-.05,0,0,0-.05,0,0-.07,0,0-.05-.08,0-.07,0-.07,0-.08,0-.08-.05-.18-.12-.37,0-.11-.41.29-.4.26-.19.14-.36.22-.17.11-.33.21-.3.19-.14.09-.13.07-.25.16-.12.06-.11.07-.3.15-.08,0-.15.08h-.08l-.12.06-.13,0-.26.09-.43.12-.14,0-.15,0-.15,0-.32.06-.16,0-.17,0-.51.06h-.18l-.18,0h-2l-.57,0-.54-.06-.27,0-.26,0-.51-.1-.5-.11-.23-.06-.24-.08-.23-.08-.23-.08-.43-.17-.21-.1-.21-.1-.2-.11-.2-.11-.19-.11-.19-.13-.21-.14-.21-.16-.4-.34-.18-.17-.17-.18-.17-.19-.15-.19-.15-.19-.14-.21-.13-.21-.12-.22-.12-.22-.1-.23-.09-.22-.09-.24-.15-.49-.06-.25,0-.26-.08-.53,0-.54v-.57l0-.28,0-.28,0-.27.09-.53.13-.51.09-.24.19-.48.12-.24.11-.22.26-.44.14-.21.16-.2.16-.19.18-.19.17-.18.19-.18.19-.18.42-.32.23-.15.4-.28.21-.13.43-.25.46-.23.23-.1.47-.19.25-.09.52-.15.25-.07.26-.06.27-.06.27,0,.27,0,.27,0,.29,0,.27,0,.3,0,.28,0h1.33l.51,0,.26,0,.27,0,.26,0,.28,0,.26,0,.28.06.27,0,.29.06.56.13.89.22.29.09.31.08.31.1.3.09.32.11.32.1.32.11V90.72l0-.2v-.2l0-.2,0-.17,0-.2,0-.18-.06-.17-.07-.17-.08-.16-.08-.16-.19-.3-.11-.15-.11-.14-.13-.14-.26-.24-.16-.13-.32-.22-.17-.11-.18-.09-.19-.1-.2-.09-.13-.06L247,87l-.6-.19-.48-.11-.18,0-.16,0-.17,0-.18,0-.16,0-.36,0-.19,0h-.18l-.19,0h-1.87l-.43,0-.41,0-.39,0-.38.06-.35.06-.34.07-.33.09-.3.1-.28.1-.28.12-.25.13-.24.13-.21.15-.21.16-.18.16-.17.19-.16.19-.14.2-.11.21L237,89l-.09.24-.07.24-.06.26,0,.12,0,.11,0,.21,0,.19,0,.17,0,.08v.07l0,.07v.07l0,0V91l0,.07v.09l0,0v0l0,.07-.06.11,0,0-.08.1,0,0-.05,0,0,0-.05,0,0,0-.05,0-.06,0-.05,0,0,0-.05,0h-.06l-.06,0h-.06l-.07,0H235l-.23,0-.11,0-.28-.11-.09,0-.08,0-.08-.07-.07-.06-.13-.15-.06-.08-.09-.17-.05-.11,0-.1,0-.11,0-.11,0-.11v-.13l0-.13V90l0-.19v-.18l0-.18,0-.18.08-.36.09-.36.06-.18.05-.17.07-.18.08-.17.08-.18.17-.34.32-.51.11-.16.13-.17.39-.49.15-.16.17-.2.4-.36.22-.17.47-.32.26-.14.26-.14.29-.14.28-.12.3-.11.33-.12.32-.09.34-.1.35-.08.36-.08.37-.06.38-.07.79-.1.42,0,.43,0,.43,0h2Zm-4.34,13.19L239,97l-.95.62-.7.8-.41,1-.13,1.16,0,.6.12.57.2.54.27.5.35.43.45.37.53.3.45.25.5.21.54.17.58.13.62.1.65.05.69,0,.61,0,.58,0,.57-.08.56-.12.54-.14.54-.19.53-.24.36-.21.4-.27.44-.29.48-.33.51-.37.53-.4.56-.42V97.36l-1-.3-1-.24-1-.21-.94-.16-.91-.13-.89-.07-.86,0-1.77.09Z"/><path id="a2dF9UjJYG-2" data-name="a2dF9UjJYG" class="cls-3" d="M244.61,83.39l.35,0,.33,0,.32,0,.32,0,.31,0,.3,0,.3,0,.28.06.27,0,.27.07.26.06.25.06.26.08.24.07.22.08.23.08.22.1.22.08.2.11.2.09.19.11.19.11.21.15.2.16.18.16.19.19.17.17.17.2.16.2.15.21.14.22.14.22.12.23.12.24.21.51.09.27.09.26.07.28.07.29.06.29.05.31,0,.31,0,.32,0,.32,0,.33V102l0,.27,0,.24v.13l0,.11,0,.1,0,.12,0,.1.06.19,0,.1.11.25,0,.08,0,.07.05.07.11.13.13.13h0l0,0v0h0l0,0,.08,0,0,0,.1,0,.06,0,0,0,.2.09.23.09.08,0,.09,0,.09,0,.08,0,.09,0,.11,0,.05,0,.12.06,0,0,.05,0,.1.07,0,0,0,0,0,0,0,.06,0,0,.05.12,0,.07,0,0v.08l0,.06v.08l0,.08v.63l0,.09v.08l0,.08,0,.08,0,.08,0,.06,0,.07,0,.06-.09.11-.05,0-.06,0-.2.11-.15.06-.08,0H255l-.19,0h-.47l-.19,0,0,0H254l-.05,0h-.06l-.2-.06-.07,0-.07,0h-.07l-.09,0-.08,0-.08,0-.27-.09-.12,0-.12,0-.12,0-.22-.07-.11,0-.1,0-.1,0-.08,0-.1,0-.07,0-.09,0-.07,0-.07,0-.07,0-.11,0-.14-.05h0l0,0h-.15l-.07,0-.05,0-.06,0,0,0-.05,0,0,0-.05,0,0,0-.05,0,0-.07,0,0-.05-.08,0-.07,0-.07,0-.08,0-.08-.05-.18-.12-.37,0-.11-.41.29-.4.26-.19.14-.36.22-.17.11-.33.21-.3.19-.14.09-.13.07-.25.16-.12.06-.11.07-.3.15-.08,0-.15.08h-.08l-.12.06-.13,0-.26.09-.43.12-.14,0-.15,0-.15,0-.32.06-.16,0-.17,0-.51.06h-.18l-.18,0h-2l-.57,0-.54-.06-.27,0-.26,0-.51-.1-.5-.11-.23-.06-.24-.08-.23-.08-.23-.08-.43-.17-.21-.1-.21-.1-.2-.11-.2-.11-.19-.11-.19-.13-.21-.14-.21-.16-.4-.34-.18-.17-.17-.18-.17-.19-.15-.19-.15-.19-.14-.21-.13-.21-.12-.22-.12-.22-.1-.23-.09-.22-.09-.24-.15-.49-.06-.25,0-.26-.08-.53,0-.54v-.57l0-.28,0-.28,0-.27.09-.53.13-.51.09-.24.19-.48.12-.24.11-.22.26-.44.14-.21.16-.2.16-.19.18-.19.17-.18.19-.18.19-.18.42-.32.23-.15.4-.28.21-.13.43-.25.46-.23.23-.1.47-.19.25-.09.52-.15.25-.07.26-.06.27-.06.27,0,.27,0,.27,0,.29,0,.27,0,.3,0,.28,0h1.33l.51,0,.26,0,.27,0,.26,0,.28,0,.26,0,.28.06.27,0,.29.06.56.13.89.22.29.09.31.08.31.1.3.09.32.11.32.1.32.11V90.72l0-.2v-.2l0-.2,0-.17,0-.2,0-.18-.06-.17-.07-.17-.08-.16-.08-.16-.19-.3-.11-.15-.11-.14-.13-.14-.26-.24-.16-.13-.32-.22-.17-.11-.18-.09-.19-.1-.2-.09-.13-.06L247,87l-.6-.19-.48-.11-.18,0-.16,0-.17,0-.18,0-.16,0-.36,0-.19,0h-.18l-.19,0h-1.87l-.43,0-.41,0-.39,0-.38.06-.35.06-.34.07-.33.09-.3.1-.28.1-.28.12-.25.13-.24.13-.21.15-.21.16-.18.16-.17.19-.16.19-.14.2-.11.21L237,89l-.09.24-.07.24-.06.26,0,.12,0,.11,0,.21,0,.19,0,.17,0,.08v.07l0,.07v.07l0,0V91l0,.07v.09l0,0v0l0,.07-.06.11,0,0-.08.1,0,0-.05,0,0,0-.05,0,0,0-.05,0-.06,0-.05,0,0,0-.05,0h-.06l-.06,0h-.06l-.07,0H235l-.23,0-.11,0-.28-.11-.09,0-.08,0-.08-.07-.07-.06-.13-.15-.06-.08-.09-.17-.05-.11,0-.1,0-.11,0-.11,0-.11v-.13l0-.13V90l0-.19v-.18l0-.18,0-.18.08-.36.09-.36.06-.18.05-.17.07-.18.08-.17.08-.18.17-.34.32-.51.11-.16.13-.17.39-.49.15-.16.17-.2.4-.36.22-.17.47-.32.26-.14.26-.14.29-.14.28-.12.3-.11.33-.12.32-.09.34-.1.35-.08.36-.08.37-.06.38-.07.79-.1.42,0,.43,0,.43,0h2Zm-4.34,13.19L239,97l-.95.62-.7.8-.41,1-.13,1.16,0,.6.12.57.2.54.27.5.35.43.45.37.53.3.45.25.5.21.54.17.58.13.62.1.65.05.69,0,.61,0,.58,0,.57-.08.56-.12.54-.14.54-.19.53-.24.36-.21.4-.27.44-.29.48-.33.51-.37.53-.4.56-.42V97.36l-1-.3-1-.24-1-.21-.94-.16-.91-.13-.89-.07-.86,0-1.77.09Z"/><path id="a3HkJ42x2Q" d="M175,73.76l.11,0,.11,0,.09.06.1.07.08.08.15.16.07.11.06.11.05.13.05.12.08.28.05.33,0,.35v31l-.05.23,0,.1,0,.1,0,.09-.11.17-.13.13-.08.07-.08,0-.09.05-.08,0-.1,0-.1,0-.23,0h-.32l-.23,0-.08,0-.06,0-.07,0-.07,0-.05,0-.06,0,0,0-.1-.09,0-.06-.11-.2,0-.08,0-.08,0-.09,0-.08v-1l0-.17v-.81l-.24.15-.23.15-.24.15-.44.27-.19.13-.21.13-.38.22-.18.11-.17.1-.17.09-.46.26-.13.07-.13.07-.25.11-.21.1-.1,0-.15.06-.16,0-.16.05-.34.09-.55.12-.18,0-.38,0-.4.06-.2,0-.41,0h-.21l-.22,0h-1.63l-.36,0-.36,0-.35,0-.35,0-.33,0-.67-.11-.62-.15-.31-.09L161,107l-.29-.1-.57-.21-.27-.13-.27-.12-.25-.13-.26-.15-.24-.14-.25-.15-.26-.18-.49-.4-.22-.2-.22-.22-.2-.23-.19-.24-.18-.24-.17-.25-.31-.53-.13-.27-.11-.29-.12-.29-.09-.29-.09-.32-.06-.32-.06-.32-.05-.33,0-.34V90.53l0-.33,0-.32.06-.32.07-.32.08-.3.09-.29.11-.29.11-.27.13-.27.14-.27.15-.26.17-.24.17-.24.19-.24.19-.22.21-.21.22-.21.47-.4.25-.18.23-.15.23-.14.24-.14.26-.14.26-.12.26-.12.55-.21.28-.1.59-.18.61-.15.31-.05.32-.06.32-.05.33,0,.67,0,.34,0h1.16l.46,0h.44l.21,0,.22,0h.2l.21,0,.4.06.18,0,.38.07.18,0,.17,0,.51.14.16.06.16.06.15,0,.16.06.15.07.16.06.16.08.17.07.32.17.52.29.17.1.51.34.36.25.17.13.18.13.18.15.36.3V75.65l0-.35.06-.33,0-.14,0-.14,0-.12,0-.13.06-.11.07-.11.06-.08.08-.08.08-.08.09-.07.08-.06.1,0,.1,0,.23-.06h.5Zm-10.28,13-.48.05-.46,0-.46.07-.42.1-.42.1-.39.13-.37.15-.35.17-.32.18-.37.26-.35.29-.31.3-.28.32-.24.33-.21.36-.18.38-.13.4-.1.42-.06.42,0,.46v8.16l0,.47.05.45.09.43.13.4.16.38.2.36.25.34.28.31.31.3.36.25.4.25.35.16.36.15.38.13.4.14.4.11.44.1.45.08.47.07.48,0,.5,0h.52l.84,0,.41,0,.39,0,.78-.12.37-.07.36-.1.35-.1.33-.11.31-.14.27-.18.27-.19.29-.19.28-.22.29-.22.31-.24.31-.24.31-.26.32-.27.34-.29.33-.29V89.59l-.39-.28-.38-.26-.36-.25-.36-.24-.34-.22-.32-.19-.32-.19-.29-.16-.27-.15-.26-.12-.24-.1-.34-.13-.34-.11-.35-.11-.36-.09-.36-.08-.37,0-.37-.06-.37,0-.39,0H165.2Z"/><path id="a3HkJ42x2Q-2" data-name="a3HkJ42x2Q" class="cls-3" d="M175,73.76l.11,0,.11,0,.09.06.1.07.08.08.15.16.07.11.06.11.05.13.05.12.08.28.05.33,0,.35v31l-.05.23,0,.1,0,.1,0,.09-.11.17-.13.13-.08.07-.08,0-.09.05-.08,0-.1,0-.1,0-.23,0h-.32l-.23,0-.08,0-.06,0-.07,0-.07,0-.05,0-.06,0,0,0-.1-.09,0-.06-.11-.2,0-.08,0-.08,0-.09,0-.08v-1l0-.17v-.81l-.24.15-.23.15-.24.15-.44.27-.19.13-.21.13-.38.22-.18.11-.17.1-.17.09-.46.26-.13.07-.13.07-.25.11-.21.1-.1,0-.15.06-.16,0-.16.05-.34.09-.55.12-.18,0-.38,0-.4.06-.2,0-.41,0h-.21l-.22,0h-1.63l-.36,0-.36,0-.35,0-.35,0-.33,0-.67-.11-.62-.15-.31-.09L161,107l-.29-.1-.57-.21-.27-.13-.27-.12-.25-.13-.26-.15-.24-.14-.25-.15-.26-.18-.49-.4-.22-.2-.22-.22-.2-.23-.19-.24-.18-.24-.17-.25-.31-.53-.13-.27-.11-.29-.12-.29-.09-.29-.09-.32-.06-.32-.06-.32-.05-.33,0-.34V90.53l0-.33,0-.32.06-.32.07-.32.08-.3.09-.29.11-.29.11-.27.13-.27.14-.27.15-.26.17-.24.17-.24.19-.24.19-.22.21-.21.22-.21.47-.4.25-.18.23-.15.23-.14.24-.14.26-.14.26-.12.26-.12.55-.21.28-.1.59-.18.61-.15.31-.05.32-.06.32-.05.33,0,.67,0,.34,0h1.16l.46,0h.44l.21,0,.22,0h.2l.21,0,.4.06.18,0,.38.07.18,0,.17,0,.51.14.16.06.16.06.15,0,.16.06.15.07.16.06.16.08.17.07.32.17.52.29.17.1.51.34.36.25.17.13.18.13.18.15.36.3V75.65l0-.35.06-.33,0-.14,0-.14,0-.12,0-.13.06-.11.07-.11.06-.08.08-.08.08-.08.09-.07.08-.06.1,0,.1,0,.23-.06h.5Zm-10.28,13-.48.05-.46,0-.46.07-.42.1-.42.1-.39.13-.37.15-.35.17-.32.18-.37.26-.35.29-.31.3-.28.32-.24.33-.21.36-.18.38-.13.4-.1.42-.06.42,0,.46v8.16l0,.47.05.45.09.43.13.4.16.38.2.36.25.34.28.31.31.3.36.25.4.25.35.16.36.15.38.13.4.14.4.11.44.1.45.08.47.07.48,0,.5,0h.52l.84,0,.41,0,.39,0,.78-.12.37-.07.36-.1.35-.1.33-.11.31-.14.27-.18.27-.19.29-.19.28-.22.29-.22.31-.24.31-.24.31-.26.32-.27.34-.29.33-.29V89.59l-.39-.28-.38-.26-.36-.25-.36-.24-.34-.22-.32-.19-.32-.19-.29-.16-.27-.15-.26-.12-.24-.1-.34-.13-.34-.11-.35-.11-.36-.09-.36-.08-.37,0-.37-.06-.37,0-.39,0H165.2Z"/><path id="d2iPJF0rB9" d="M225.65,76.87a7.67,7.67,0,0,1,3.12,6.4c0,1.23-.51,1.85-1.54,1.85-.72,0-1.23-.62-1.54-1.85a10.8,10.8,0,0,0-1.12-2.91c-.93-1.64-2.92-2.39-6-2.39-2.7,0-4.55.62-5.68,2s-1.63,3.11-1.63,5.88V96.53c0,2.81.61,4.76,1.74,6s3.11,2,5.77,2c4,0,6.4-1.43,6.91-4.23.21-1,.31-1.54.31-1.65a1.21,1.21,0,0,1,1.23-.92c1,0,1.54.62,1.54,1.85a7,7,0,0,1-3.21,6.09,12.2,12.2,0,0,1-6.81,1.75c-3.32,0-5.88-.73-7.76-2.27-2.09-1.43-3.11-3.89-3.11-7.11h0V85.15c0-6.81,3.52-10.12,10.74-10.12A12.43,12.43,0,0,1,225.65,76.87Z"/><path id="d2iPJF0rB9-2" data-name="d2iPJF0rB9" class="cls-3" d="M225.65,76.87a7.67,7.67,0,0,1,3.12,6.4c0,1.23-.51,1.85-1.54,1.85-.72,0-1.23-.62-1.54-1.85a10.8,10.8,0,0,0-1.12-2.91c-.93-1.64-2.92-2.39-6-2.39-2.7,0-4.55.62-5.68,2s-1.63,3.11-1.63,5.88V96.53c0,2.81.61,4.76,1.74,6s3.11,2,5.77,2c4,0,6.4-1.43,6.91-4.23.21-1,.31-1.54.31-1.65a1.21,1.21,0,0,1,1.23-.92c1,0,1.54.62,1.54,1.85a7,7,0,0,1-3.21,6.09,12.2,12.2,0,0,1-6.81,1.75c-3.32,0-5.88-.73-7.76-2.27-2.09-1.43-3.11-3.89-3.11-7.11h0V85.15c0-6.81,3.52-10.12,10.74-10.12A12.43,12.43,0,0,1,225.65,76.87Z"/><path id="dzhlmAMnT" d="M194,83.72l.78.1.75.14.71.17.67.21.64.25.6.29.54.33.52.37.48.4.43.44.4.47.37.52.32.56.29.59.24.64.21.66.17.71.13.74.1.78,0,.82,0,.86V94l0,.2v.18l0,.19,0,.18,0,.16-.05.16,0,.14-.06.13-.07.13-.07.12-.09.11-.08.11-.19.17-.23.13-.25.09-.14,0-.14,0-.15,0H184.63v3.18l0,.45,0,.43.08.41.1.39.13.37.15.35.19.32.21.31.24.29.27.27.3.25.33.22.35.21.39.19.42.17.43.16.48.12.5.11.53.09.56.06.59.06.61,0h1.35l.45,0,.22,0h.21l.41,0h.2l.2,0,.57-.08.36-.08.34-.07.16,0,.17,0,.16,0,.14-.06.23-.08.09,0,.09,0,.1,0,.1,0,.11,0,.11,0,.11,0,.25-.13.13-.07.13-.08.14-.07.15-.09.15-.08.15-.09.16-.1.16-.11.17-.11.36-.23.19-.12.19-.13.11-.11.12-.1.1-.09.12-.1.1-.08.1-.08.19-.15.09-.07.09-.07.09,0,.08-.06.07,0,.08,0,.06,0,.14-.06.05,0,.12,0h.43l.17,0,.09,0,.07,0,.08,0,.06,0,.06,0,.12.11,0,0,0,.07.08.15,0,.09,0,.09,0,.19v.46l0,.12v.12l0,.11,0,.13,0,.13,0,.11-.06.12-.05.12-.07.13-.15.24-.09.12-.09.12-.21.25-.37.37-.43.36-.16.13-.52.38-.29.18-.3.19-.3.16-.33.16-.33.14-.34.14-.35.13-.37.13-.38.11-.39.1-.4.11-.4.08-.42.08-.44.08-.44,0-.45.06-.47,0-.47,0-1,0H191.2l-.84,0-.81-.08-.76-.11-.72-.14-.69-.16-.66-.21-.6-.23-.58-.26-.53-.29-.49-.32-.46-.36-.41-.38-.39-.42-.33-.45-.3-.48-.26-.51-.21-.54-.18-.57-.15-.6-.09-.64-.07-.67,0-.7V91.2l0-.23v-.25l0-.23,0-.23,0-.24.09-.46.07-.21.07-.23.07-.22.09-.21.09-.21.21-.42.12-.21.13-.2.13-.2.15-.19.14-.18.16-.19.35-.37.18-.18.25-.23.26-.22.27-.22.28-.2.29-.19.31-.18.31-.17.34-.16.33-.14.35-.14.36-.12.76-.23.38-.1.41-.08.41-.08.42,0,.44-.06.44,0,.45,0,.46,0,.48,0h.48l.87,0Zm-3.68,2.9-.74.12-.71.18-.68.23-.66.28-.63.32-.61.45-.51.47-.41.51-.33.54-.22.55-.13.59-.05.62v1.74H199.4l-.15-1.77-.46-1.5L198,88.71l-1.08-.95-1.38-.7-1.71-.4-2-.14-.77,0Z"/><path id="dzhlmAMnT-2" data-name="dzhlmAMnT" class="cls-3" d="M194,83.72l.78.1.75.14.71.17.67.21.64.25.6.29.54.33.52.37.48.4.43.44.4.47.37.52.32.56.29.59.24.64.21.66.17.71.13.74.1.78,0,.82,0,.86V94l0,.2v.18l0,.19,0,.18,0,.16-.05.16,0,.14-.06.13-.07.13-.07.12-.09.11-.08.11-.19.17-.23.13-.25.09-.14,0-.14,0-.15,0H184.63v3.18l0,.45,0,.43.08.41.1.39.13.37.15.35.19.32.21.31.24.29.27.27.3.25.33.22.35.21.39.19.42.17.43.16.48.12.5.11.53.09.56.06.59.06.61,0h1.35l.45,0,.22,0h.21l.41,0h.2l.2,0,.57-.08.36-.08.34-.07.16,0,.17,0,.16,0,.14-.06.23-.08.09,0,.09,0,.1,0,.1,0,.11,0,.11,0,.11,0,.25-.13.13-.07.13-.08.14-.07.15-.09.15-.08.15-.09.16-.1.16-.11.17-.11.36-.23.19-.12.19-.13.11-.11.12-.1.1-.09.12-.1.1-.08.1-.08.19-.15.09-.07.09-.07.09,0,.08-.06.07,0,.08,0,.06,0,.14-.06.05,0,.12,0h.43l.17,0,.09,0,.07,0,.08,0,.06,0,.06,0,.12.11,0,0,0,.07.08.15,0,.09,0,.09,0,.19v.46l0,.12v.12l0,.11,0,.13,0,.13,0,.11-.06.12-.05.12-.07.13-.15.24-.09.12-.09.12-.21.25-.37.37-.43.36-.16.13-.52.38-.29.18-.3.19-.3.16-.33.16-.33.14-.34.14-.35.13-.37.13-.38.11-.39.1-.4.11-.4.08-.42.08-.44.08-.44,0-.45.06-.47,0-.47,0-1,0H191.2l-.84,0-.81-.08-.76-.11-.72-.14-.69-.16-.66-.21-.6-.23-.58-.26-.53-.29-.49-.32-.46-.36-.41-.38-.39-.42-.33-.45-.3-.48-.26-.51-.21-.54-.18-.57-.15-.6-.09-.64-.07-.67,0-.7V91.2l0-.23v-.25l0-.23,0-.23,0-.24.09-.46.07-.21.07-.23.07-.22.09-.21.09-.21.21-.42.12-.21.13-.2.13-.2.15-.19.14-.18.16-.19.35-.37.18-.18.25-.23.26-.22.27-.22.28-.2.29-.19.31-.18.31-.17.34-.16.33-.14.35-.14.36-.12.76-.23.38-.1.41-.08.41-.08.42,0,.44-.06.44,0,.45,0,.46,0,.48,0h.48l.87,0Zm-3.68,2.9-.74.12-.71.18-.68.23-.66.28-.63.32-.61.45-.51.47-.41.51-.33.54-.22.55-.13.59-.05.62v1.74H199.4l-.15-1.77-.46-1.5L198,88.71l-1.08-.95-1.38-.7-1.71-.4-2-.14-.77,0Z"/></g></g></g></svg>