<svg xmlns="http://www.w3.org/2000/svg" viewBox="0 0 290.25 332.3"><defs><style>.cls-1{fill:#f68b1f;}.cls-2{fill:#fff;}.cls-3{fill-opacity:0;stroke:#fff;stroke-opacity:0;}</style></defs><g id="Layer_2" data-name="Layer 2"><g id="Layer_1-2" data-name="Layer 1"><g id="Orange_Logo_Sm" data-name="Orange Logo Sm"><path class="cls-1" d="M288.81,116.28c-7.49,51.54-84.79,213.89-144,216-57,2-154.67-185.23-144-243C15.14,11.66,85.74-.12,141.05,0,193.12.12,304.15,10.6,288.81,116.28Z"/><path id="a1UGBK5Jf" class="cls-2" d="M82.2,53.05a4.06,4.06,0,0,1,1.35,2.61c0,1.69-2,4-5.62,7.72C62.7,78,55,96,55.1,117.64c0,24,8.11,43.19,23.76,58.1,3.3,2.94,4.65,5.26,4.65,7.24a5.83,5.83,0,0,1-1.34,3,4.74,4.74,0,0,1-3,1.35c-3.62,0-8.69-4.27-15.31-12.6-12.88-15.8-18.71-33.24-19-57S52,77.75,66.62,61.1c5.26-6,9.64-9,12.62-9.05A5.21,5.21,0,0,1,82.2,53.05Z"/><path id="a1UGBK5Jf-2" data-name="a1UGBK5Jf" class="cls-3" d="M82.2,53.05a4.06,4.06,0,0,1,1.35,2.61c0,1.69-2,4-5.62,7.72C62.7,78,55,96,55.1,117.64c0,24,8.11,43.19,23.76,58.1,3.3,2.94,4.65,5.26,4.65,7.24a5.83,5.83,0,0,1-1.34,3,4.74,4.74,0,0,1-3,1.35c-3.62,0-8.69-4.27-15.31-12.6-12.88-15.8-18.71-33.24-19-57S52,77.75,66.62,61.1c5.26-6,9.64-9,12.62-9.05A5.21,5.21,0,0,1,82.2,53.05Z"/><path id="a8LR3SBcZL" class="cls-2" d="M162.17,121.93c-5.72-1.46,17.75-29.2-24-62.41,0,0,5.47,17.4-22.13,56.21s12.28,61.91,12.28,61.91-18.72-10,3-45.5c3.9-6.45,9-12.28,15.33-25.42,0,0,5.6,7.91,2.67,25.05-4.37,25.91,19,18.5,19.34,18.86,8.15,9.6-6.76,26.48-7.66,27s42.57-26.16,11.68-66.3C170.64,113.46,167.89,123.39,162.17,121.93Z"/><path id="a8LR3SBcZL-2" data-name="a8LR3SBcZL" class="cls-3" d="M162.17,121.93c-5.72-1.46,17.75-29.2-24-62.41,0,0,5.47,17.4-22.13,56.21s12.28,61.91,12.28,61.91-18.72-10,3-45.5c3.9-6.45,9-12.28,15.33-25.42,0,0,5.6,7.91,2.67,25.05-4.37,25.91,19,18.5,19.34,18.86,8.15,9.6-6.76,26.48-7.66,27s42.57-26.16,11.68-66.3C170.64,113.46,167.89,123.39,162.17,121.93Z"/><path id="eYLbcOweH" class="cls-2" d="M208.05,53a4.09,4.09,0,0,0-1.35,2.62c0,1.68,2,4,5.62,7.71C227.55,78,235.21,96,235.15,117.62c-.05,24-8.11,43.2-23.76,58.11-3.3,2.94-4.65,5.25-4.65,7.23a5.81,5.81,0,0,0,1.34,3,4.84,4.84,0,0,0,2.94,1.35c3.63,0,8.7-4.28,15.32-12.61,12.88-15.8,18.71-33.24,19-57s-7.16-39.92-21.75-56.57c-5.26-5.95-9.64-9-12.63-9A5.2,5.2,0,0,0,208.05,53Z"/><path id="eYLbcOweH-2" data-name="eYLbcOweH" class="cls-3" d="M208.05,53a4.09,4.09,0,0,0-1.35,2.62c0,1.68,2,4,5.62,7.71C227.55,78,235.21,96,235.15,117.62c-.05,24-8.11,43.2-23.76,58.11-3.3,2.94-4.65,5.25-4.65,7.23a5.81,5.81,0,0,0,1.34,3,4.84,4.84,0,0,0,2.94,1.35c3.63,0,8.7-4.28,15.32-12.61,12.88-15.8,18.71-33.24,19-57s-7.16-39.92-21.75-56.57c-5.26-5.95-9.64-9-12.63-9A5.2,5.2,0,0,0,208.05,53Z"/></g></g></g></svg>