<svg xmlns="http://www.w3.org/2000/svg" xmlns:xlink="http://www.w3.org/1999/xlink" viewBox="0 0 1920 1080" xmlns:v="https://vecta.io/nano"><style><![CDATA[.K{stroke-width:2}.L{stroke-miterlimit:10}.M{stroke-linecap:round}.N{fill:#f9ad21}]]></style><path d="M1260.87 505.38c0 60.43-16.65 116.98-45.62 165.28h-552.4c-28.98-48.3-45.64-104.84-45.64-165.28 0-177.75 144.09-321.82 321.82-321.82 177.75 0 321.84 144.07 321.84 321.82z" opacity=".28" class="N"/><path d="M772.33 273.46H597.51a12.6 12.6 0 0 1-12.6-12.6h0a12.6 12.6 0 0 1 12.6-12.6h174.83a12.6 12.6 0 0 1 12.6 12.6h0c-.01 6.96-5.65 12.6-12.61 12.6zm394.57-40.48H980.01a6.57 6.57 0 0 1-6.57-6.57v-12.06a6.57 6.57 0 0 1 6.57-6.57h186.89a6.57 6.57 0 0 1 6.57 6.57v12.06c-.01 3.63-2.95 6.57-6.57 6.57zm149.52 184.95h-174.83a12.6 12.6 0 0 1-12.6-12.6h0a12.6 12.6 0 0 1 12.6-12.6h174.83a12.6 12.6 0 0 1 12.6 12.6h0c0 6.95-5.65 12.6-12.6 12.6zm73.09 40.1h-174.83a12.6 12.6 0 0 1-12.6-12.6h0a12.6 12.6 0 0 1 12.6-12.6h174.83a12.6 12.6 0 0 1 12.6 12.6h0a12.6 12.6 0 0 1-12.6 12.6zm-605.47-66.64H609.22a12.6 12.6 0 0 1-12.6-12.6h0a12.6 12.6 0 0 1 12.6-12.6h174.83a12.6 12.6 0 0 1 12.6 12.6h0c-.01 6.95-5.65 12.6-12.61 12.6z" fill="#fff"/><g fill="none" class="K"><g stroke="#f05e3e" class="L M"><path d="M1247.45 663.88l-3.59 6.78h-7.67"/><path d="M1220.96 670.66H649.49" stroke-dasharray="7.9446,7.9446"/><path d="M641.87 670.66h-7.67l-3.58-6.78"/><path d="M623.93 650.17c-20.28-44.06-31.59-93.1-31.59-144.79 0-191.47 155.21-346.7 346.69-346.7s346.7 155.23 346.7 346.7c0 54.4-12.53 105.86-34.86 151.68" stroke-dasharray="7.951,7.951"/></g><g stroke="#fdca0f"><path d="M565.73 271.85l-17.25 17.25" class="L M"/><path d="M548.48 271.85l17.25 17.25m-144.2 334.87l-17.26 17.26" class="L M"/><path d="M404.27 623.97l17.26 17.26m449.6-411.17l-17.26 17.25" class="L M"/><path d="M853.87 230.06l17.26 17.25m524.25 320.44L1378.13 585" class="L M"/><path d="M1378.13 567.75l17.25 17.25m-21.63-313.15l-17.25 17.25" class="L M"/><path d="M1356.5 271.85l17.25 17.25m-159.62-122.52l-17.25 17.26" class="L M"/><path d="M1196.88 166.58l17.25 17.26" class="L M"/><circle cx="479.87" cy="403.57" r="10.84"/><path d="M540 546.15c4.5 3.95 4.94 10.81.99 15.3-3.95 4.5-10.8 4.94-15.3.99s-4.94-10.8-.99-15.3 10.8-4.95 15.3-.99z" class="L"/><circle cx="1514.87" cy="643.44" r="10.84"/><path d="M1099.81 267.96a10.84 10.84 0 0 1-21.68 0 10.84 10.84 0 0 1 21.68 0z" class="L"/><circle cx="818.2" cy="80.13" r="10.84"/><circle cx="1348.29" cy="448.43" r="10.84"/></g></g><g class="N"><use xlink:href="#B"/><use xlink:href="#B" x="-237.86"/><path d="M966.84 498.7H960c-1.11-4.44-2.86-8.63-5.16-12.46l4.84-4.84a4.11 4.11 0 0 0 0-5.82l-9.97-9.97a4.11 4.11 0 0 0-5.82 0l-4.84 4.84c-3.83-2.3-8.01-4.05-12.46-5.16v-6.84a4.11 4.11 0 0 0-4.11-4.11h-14.1a4.11 4.11 0 0 0-4.11 4.11v6.84c-4.44 1.11-8.63 2.86-12.46 5.16l-4.84-4.84a4.11 4.11 0 0 0-5.82 0l-9.97 9.97a4.11 4.11 0 0 0 0 5.82l4.84 4.84c-2.3 3.83-4.05 8.01-5.16 12.46h-6.84a4.11 4.11 0 0 0-4.11 4.11v14.1a4.11 4.11 0 0 0 4.11 4.11h6.84c1.11 4.45 2.86 8.63 5.16 12.46l-4.84 4.84a4.11 4.11 0 0 0 0 5.82l9.97 9.97a4.11 4.11 0 0 0 5.82 0l4.84-4.84c3.83 2.3 8.01 4.05 12.46 5.16v6.84a4.11 4.11 0 0 0 4.11 4.11h14.1a4.11 4.11 0 0 0 4.11-4.11v-6.84c4.45-1.11 8.63-2.86 12.46-5.16l4.84 4.84a4.11 4.11 0 0 0 5.82 0l9.97-9.97a4.11 4.11 0 0 0 0-5.82l-4.84-4.84c2.3-3.83 4.05-8.01 5.16-12.46h6.84a4.11 4.11 0 0 0 4.11-4.11v-14.1a4.12 4.12 0 0 0-4.11-4.11zm-51.41 38.97c-15.36 0-27.8-12.45-27.8-27.8 0-15.36 12.45-27.8 27.8-27.8 15.36 0 27.8 12.45 27.8 27.8s-12.45 27.8-27.8 27.8z"/></g><g fill="none" stroke="#f05e3e" class="K L"><path d="M822.29 524.12v-47.55l-29.87 47.55h29.87zm100.63 15.91c-15.36 0-27.8-12.45-27.8-27.8 0-15.36 12.45-27.8 27.8-27.8 15.36 0 27.8 12.45 27.8 27.8s-12.45 27.8-27.8 27.8zm240.59 27.72h-70.52c-9.64 0-11.65-3.77-11.65-11.31v-13.85h4.89c3.26 0 5.75-.88 7.47-2.65 1.71-1.77 2.57-3.96 2.57-6.58 0-2.46-.86-4.62-2.57-6.46-1.72-1.85-4.21-2.77-7.47-2.77h-4.89v-46.17c0-7.54-1.72-12.93-5.15-16.16-3.44-3.23-8.33-4.85-14.68-4.85-3.95 0-7.43.92-10.43 2.77-3.01 1.85-5.88 4.7-8.63 8.54l-33.99 52.63c-1.03 1.54-2.36 3.66-3.99 6.35s-2.45 5.12-2.45 7.27c0 5.39 4.98 8.08 14.93 8.08h43v12.93c0 8.16-1.01 12.23-14.27 12.23h-65.16-41.57c-3.81 0-4.89-1.84-4.89-4.11v-6.84c4.44-1.11 8.63-2.86 12.46-5.16l4.84 4.84a4.11 4.11 0 0 0 5.82 0l9.97-9.97a4.11 4.11 0 0 0 0-5.82l-4.84-4.84c2.3-3.83 4.05-8.01 5.16-12.46h6.84a4.11 4.11 0 0 0 4.11-4.11v-14.1a4.11 4.11 0 0 0-4.11-4.11h-6.84c-1.11-4.44-2.86-8.63-5.16-12.46l4.84-4.84a4.11 4.11 0 0 0 0-5.82l-9.97-9.97a4.11 4.11 0 0 0-5.82 0l-4.84 4.84c-3.83-2.3-8.01-4.05-12.46-5.16v-6.84a4.11 4.11 0 0 0-4.11-4.11h-14.1a4.11 4.11 0 0 0-4.11 4.11v6.84c-4.44 1.11-8.63 2.86-12.46 5.16l-4.84-4.84a4.11 4.11 0 0 0-5.82 0l-9.97 9.97a4.11 4.11 0 0 0 0 5.82l4.84 4.84c-2.3 3.83-4.05 8.01-5.16 12.46h-6.84a4.11 4.11 0 0 0-4.11 4.11v14.1a4.11 4.11 0 0 0 4.11 4.11h6.84c1.11 4.45 2.86 8.63 5.16 12.46l-4.84 4.84a4.11 4.11 0 0 0 0 5.82l9.97 9.97a4.11 4.11 0 0 0 5.82 0l4.84-4.84c3.83 2.3 8.01 4.05 12.46 5.16v6.84c0 3.31-3.62 4.11-7.82 4.11H855.3c-9.64 0-11.65-3.77-11.65-11.31v-13.85h4.89c3.26 0 5.75-.88 7.47-2.65 1.71-1.77 2.58-3.96 2.58-6.58 0-2.46-.86-4.62-2.58-6.46-1.72-1.85-4.21-2.77-7.47-2.77h-4.89v-46.17c0-7.54-1.72-12.93-5.15-16.16-3.44-3.23-8.33-4.85-14.68-4.85-3.95 0-7.43.92-10.43 2.77-3.01 1.85-5.88 4.7-8.63 8.54l-33.99 52.63c-1.03 1.54-2.36 3.66-3.99 6.35s-2.45 5.12-2.45 7.27c0 5.39 4.98 8.08 14.93 8.08h43v12.93c0 8.16-1.01 12.23-14.27 12.23h-93.45m345.43-43.63v-47.55l-29.87 47.55h29.87z"/><path d="M1205.5,670.65H672.57V324.21c0-6.93,5.61-12.54,12.54-12.54h507.85c6.93,0,12.54,5.61,12.54,12.54V670.65z"/><path d="M696.63 334.06h484.82v313.82H696.63zm-89 336.59h662.83v23.32H607.63z"/><path d="M1241.08 708.92H637c-6.6 0-13.01-2.2-18.22-6.26l-11.15-8.69h662.83l-11.15 8.69c-5.22 4.05-11.63 6.26-18.23 6.26z" stroke-linejoin="round"/></g><path d="M483.64 842.83c0 38.17-30.31 67.16-70.91 67.16-40.41 0-70.72-28.81-70.72-67.16 0-38.17 30.31-66.42 70.72-66.42 40.6.01 70.91 28.44 70.91 66.42zm-107.58.19c0 22.08 17.03 39.1 37.04 39.1 20.21 0 36.29-17.02 36.29-39.1s-16.09-38.73-36.29-38.73-37.04 16.65-37.04 38.73zm226.76 14.96c0 31.06-22.08 51.64-55 51.64-33.11 0-55.19-20.58-55.19-51.64s22.08-51.45 55.19-51.45c32.92.01 55 20.4 55 51.45zm-77.64.38c0 15.72 9.17 26.19 22.64 26.19 13.28 0 22.45-10.48 22.45-26.19 0-15.53-9.17-26.19-22.45-26.19-13.47 0-22.64 10.66-22.64 26.19zm205.8.19c0 30.68-18.34 51.08-46.59 51.08-13.1 0-23.76-5.24-30.87-14.59v49.76h-32.37V807.66h32.37v13.28c7.11-9.17 17.4-14.41 30.12-14.41 28.44.01 47.34 20.77 47.34 52.02zm-32.55-.94c0-15.34-9.17-26.19-22.64-26.19-13.1 0-22.26 10.85-22.26 26.19 0 15.72 9.17 26.38 22.26 26.38 13.47 0 22.64-10.85 22.64-26.38zm127.6-40.04l-11.04 20.95c-12.16-6.55-23.39-10.1-31.81-10.1-5.8 0-9.91 2.25-9.91 6.92 0 13.84 53.13 7.11 52.95 42.28 0 20.77-18.15 32.18-42.47 32.18-16.84 0-33.11-4.86-45.28-14.22L748.76 875c11.41 8.04 24.51 12.53 35.73 12.53 6.36 0 11.04-2.24 11.04-6.92 0-14.78-52.2-7.11-52.01-42.47 0-20.77 17.59-31.99 40.97-31.99 14.6.01 29.19 4.13 41.54 11.42zm45.65 76.71c0 9.35-6.55 15.72-15.72 15.72-8.98 0-15.53-6.36-15.53-15.72 0-9.17 6.55-15.53 15.53-15.53 9.17 0 15.72 6.36 15.72 15.53zm-5.43-30.68H846.8l-5.61-52.01v-33.3h30.68v33.3l-5.62 52.01z" class="N"/><g fill="#414042"><path d="M956.53 838.41l-7.51-24.71-7.6 24.71h-5.52l-10.5-31.68h5.75l7.69 25.75 7.65-25.7 5.25-.05 7.69 25.75 7.65-25.75h5.52L962 838.41h-5.47zm38.19-10.05h-18.19c.81 3.71 3.67 6.02 7.47 6.02 2.62 0 5.02-1 6.79-2.81l2.76 2.94c-2.35 2.58-5.79 4.07-9.96 4.07-7.42 0-12.31-4.93-12.31-12.17 0-7.28 5.02-12.22 12.17-12.26 8.46.01 11.9 5.53 11.27 14.21zm-4.53-3.8c-.18-3.89-2.76-6.24-6.7-6.24-3.8 0-6.47 2.4-7.06 6.24h13.76zm41.45-6.47l-2.85 3.35c-1.67-1.72-3.98-2.76-6.88-2.72-4.16 0-7.15 3.12-7.15 7.69s2.99 7.69 7.15 7.69c3.03 0 5.48-1 7.1-2.9l2.9 2.9c-2.17 2.85-5.66 4.48-10.23 4.48-7.15 0-12.13-4.93-12.13-12.17 0-7.28 4.98-12.26 12.13-12.26 4.35.01 7.75 1.41 9.96 3.94zm19.14 17.38c-1.72 2.13-4.48 3.17-7.96 3.17-5.2 0-8.46-3.21-8.46-7.47 0-4.39 3.3-7.2 9.1-7.24h7.29v-.72c0-3.03-1.95-4.84-5.75-4.84-2.31 0-4.71.81-7.1 2.44l-2.13-3.62c3.35-1.99 5.79-3.03 10.36-3.03 6.2 0 9.68 3.17 9.73 8.46l.05 15.79h-5.11v-2.94zm-.04-5.52v-2.22h-6.52c-3.39 0-4.98.91-4.98 3.21 0 2.17 1.76 3.58 4.66 3.58 3.72 0 6.57-1.95 6.84-4.57z"/><use xlink:href="#C"/><path d="M1096.71 809.63c0 .9-.32 1.63-.81 2.35l-2.58 3.89h-2.67l1.72-3.89c-.81-.54-1.22-1.4-1.22-2.35 0-1.72 1.18-2.9 2.81-2.9 1.44 0 2.75 1.05 2.75 2.9z"/><use xlink:href="#D"/><path d="M1148.25 816.55l-1.9 3.85c-2.13-1.31-4.8-2.13-6.92-2.13-2.04 0-3.53.68-3.53 2.4 0 4.43 12.81 2.04 12.76 10.77 0 4.93-4.39 7.15-9.23 7.15-3.53 0-7.28-1.18-9.68-3.35l1.85-3.71c2.08 1.85 5.43 2.99 8.05 2.99 2.22 0 3.94-.77 3.94-2.58 0-4.93-12.67-2.17-12.62-10.86 0-4.89 4.25-6.97 8.87-6.97 3.03 0 6.24.91 8.41 2.44z"/><use xlink:href="#E"/><path d="M1201.69 828.36h-18.19c.81 3.71 3.66 6.02 7.47 6.02 2.62 0 5.02-1 6.79-2.81l2.76 2.94c-2.35 2.58-5.79 4.07-9.96 4.07-7.42 0-12.31-4.93-12.31-12.17 0-7.28 5.02-12.22 12.17-12.26 8.47.01 11.91 5.53 11.27 14.21zm-4.52-3.8c-.18-3.89-2.76-6.24-6.7-6.24-3.8 0-6.47 2.4-7.06 6.24h13.76zm50.18-1.13v14.98h-5.2v-13.53c0-3.67-2.17-5.88-5.7-5.88-4.12.14-6.61 3.3-6.61 7.51v11.9h-5.2v-13.53c0-3.67-2.13-5.88-5.66-5.88-4.16.14-6.7 3.3-6.7 7.51v11.9h-5.16v-24.07h5.16V819c1.67-3.39 4.75-4.84 8.73-4.84 4.3 0 7.24 2.13 8.37 5.79 1.54-4.03 4.75-5.79 9.14-5.79 5.53 0 8.83 3.53 8.83 9.27z"/><use xlink:href="#D" x="163.44"/><path d="M1306.99 826.37c0 7.24-5.11 12.22-12.53 12.22-7.47 0-12.58-4.98-12.58-12.22 0-7.29 5.11-12.22 12.58-12.22 7.42.01 12.53 4.94 12.53 12.22zm-19.91.05c0 4.66 3.03 7.83 7.38 7.83 4.3 0 7.33-3.17 7.33-7.83 0-4.62-3.03-7.78-7.33-7.78-4.35 0-7.38 3.16-7.38 7.78zm38.01-13.53c0-5.75 4.25-8.28 8.28-8.28 1.63 0 3.21.36 4.48 1.09l-.18 4.52c-1.4-.63-2.9-1.04-4.16-1.04-1.86 0-3.26.86-3.26 3.21v2.81h6.29v3.89h-6.29v19.32h-5.16v-19.32h-3.17v-3.89h3.17v-2.31zm14.07-5.43c0-1.86 1.31-3.17 3.03-3.17s3.03 1.31 3.03 3.17c0 1.81-1.31 3.12-3.03 3.12-1.71 0-3.03-1.31-3.03-3.12zm5.61 6.88v24.07h-5.16v-24.07h5.16z"/><use xlink:href="#C" x="289.6"/><path d="M1405.41 838.41h-5.2v-4.12c-1.72 2.81-4.62 4.34-8.46 4.34-6.92 0-11.54-5.02-11.54-12.35 0-7.24 4.66-12.17 11.45-12.17 3.89 0 6.79 1.58 8.55 4.39v-13.67h5.2v33.58zm-5.2-11.95c0-4.66-3.03-7.92-7.38-7.92-4.34 0-7.38 3.3-7.42 7.92.05 4.57 3.03 7.83 7.42 7.83 4.34 0 7.38-3.26 7.38-7.83z"/><use xlink:href="#D" x="322.45"/><path d="M1466.72 823.43v14.98h-5.2v-13.53c0-3.62-2.17-5.84-5.79-5.84-4.3.05-6.88 3.26-6.88 7.51v11.86h-5.2v-33.58h5.2v14.21c1.72-3.39 4.8-4.89 8.91-4.89 5.62.01 8.96 3.54 8.96 9.28z"/><use xlink:href="#E" x="319.78"/><path d="M954.44 880.77c0 7.2-4.53 12.13-11.4 12.13-3.85 0-6.74-1.54-8.51-4.34v12.94h-5.2v-32.85h5.2v4.16c1.76-2.8 4.66-4.34 8.42-4.34 6.83-.01 11.49 4.96 11.49 12.3zm-5.24-.19c0-4.48-3.03-7.78-7.33-7.78s-7.33 3.26-7.33 7.78c0 4.66 3.03 7.87 7.33 7.87 4.29.01 7.33-3.25 7.33-7.87zm25.11 9.19c-1.72 2.13-4.48 3.17-7.96 3.17-5.2 0-8.46-3.21-8.46-7.47 0-4.39 3.3-7.19 9.1-7.24h7.28v-.72c0-3.03-1.95-4.84-5.75-4.84-2.31 0-4.71.81-7.1 2.44l-2.13-3.62c3.35-1.99 5.79-3.03 10.36-3.03 6.2 0 9.68 3.17 9.73 8.46l.05 15.79h-5.11v-2.94zm-.05-5.52v-2.22h-6.52c-3.39 0-4.98.9-4.98 3.21 0 2.17 1.76 3.58 4.66 3.58 3.72 0 6.57-1.95 6.84-4.57z"/><use xlink:href="#F"/><path d="M1036.53 882.67h-18.19c.81 3.71 3.66 6.02 7.47 6.02 2.62 0 5.02-.99 6.79-2.81l2.76 2.94c-2.35 2.58-5.79 4.07-9.96 4.07-7.42 0-12.31-4.93-12.31-12.17 0-7.29 5.02-12.22 12.17-12.26 8.46 0 11.9 5.52 11.27 14.21zm-4.53-3.81c-.18-3.89-2.76-6.24-6.7-6.24-3.8 0-6.47 2.4-7.06 6.24H1032zm31.09 17.15c-1.49 3.8-4.21 5.7-7.83 5.7-2.17 0-3.89-.63-5.57-2.04l2.22-4.03c1.13.81 2.04 1.18 3.12 1.18 1.58 0 2.85-.86 3.67-2.67l.81-1.81-9.96-23.71h5.39l7.19 18.24 6.7-18.24h5.2l-10.94 27.38zm36.52-15.34c0 7.24-5.11 12.22-12.53 12.22-7.47 0-12.58-4.98-12.58-12.22 0-7.29 5.11-12.22 12.58-12.22 7.41.01 12.53 4.94 12.53 12.22zm-19.91.05c0 4.66 3.03 7.83 7.38 7.83 4.3 0 7.33-3.17 7.33-7.83 0-4.62-3.03-7.78-7.33-7.78-4.35 0-7.38 3.17-7.38 7.78zm47.19 11.99h-5.2V888c-1.63 3.35-4.66 4.84-8.6 4.89-5.52 0-8.82-3.53-8.82-9.28v-14.98h5.2v13.53c0 3.62 2.13 5.84 5.61 5.84 4.16-.09 6.61-3.3 6.61-7.51v-11.86h5.2v24.08zm11.54-28.78c0 .91-.32 1.63-.81 2.35l-2.58 3.89h-2.67l1.72-3.89c-.81-.54-1.22-1.4-1.22-2.35 0-1.72 1.18-2.9 2.81-2.9 1.44.01 2.75 1.05 2.75 2.9zm11.04 9.5c1.63-3.26 4.53-4.98 8.33-4.98v4.98c-4.84-.27-7.92 2.58-8.33 6.7v12.58h-5.2v-24.07h5.2v4.79zm33.81 9.24h-18.19c.81 3.71 3.67 6.02 7.47 6.02 2.62 0 5.02-.99 6.79-2.81l2.76 2.94c-2.35 2.58-5.79 4.07-9.96 4.07-7.42 0-12.31-4.93-12.31-12.17 0-7.29 5.02-12.22 12.17-12.26 8.46 0 11.9 5.52 11.27 14.21zm-4.53-3.81c-.18-3.89-2.76-6.24-6.7-6.24-3.8 0-6.47 2.4-7.06 6.24h13.76zm21.86 13.85v-33.58h5.2v33.58h-5.2z"/><use xlink:href="#G"/><use xlink:href="#G" x="28.28"/><path d="M1275.72 885.97v6.74h-5.2v-33.58h5.2v20.27l10.63-10.77h5.97l-8.91 9.32 9.59 14.75h-6.15l-7.06-11.04-4.07 4.31zm27.11-24.21c0 1.81-1.31 3.12-3.03 3.12s-3.03-1.31-3.03-3.12c0-1.86 1.31-3.17 3.03-3.17 1.71 0 3.03 1.32 3.03 3.17zm-5.61 30.95v-24.07h5.16v24.07h-5.16zm35.88-14.98v14.98h-5.2v-13.53c0-3.62-2.17-5.84-5.79-5.84-3.98.04-6.47 2.81-6.83 6.56v12.81h-5.2v-24.07h5.2v4.62c1.72-3.35 4.8-4.8 8.87-4.8 5.6 0 8.95 3.53 8.95 9.27z"/><use xlink:href="#F" x="353.68"/><path d="M1386.86 866.69v2.85h6.29v3.89h-6.29v19.28h-5.16v-19.28h-3.17v-3.89h3.17v-2.35c0-5.61 4.12-8.28 8.28-8.28 1.95 0 3.89.54 5.43 1.67l-1.99 3.98c-1-.72-2.22-1.13-3.3-1.13-1.77.01-3.26 1-3.26 3.26z"/><use xlink:href="#G" x="182.04"/><path d="M1429.26 873.43c1.63-3.26 4.52-4.98 8.33-4.98v4.98c-4.84-.27-7.92 2.58-8.33 6.7v12.58h-5.2v-24.07h5.2v4.79zm16.56 16.66c0 1.76-1.22 3.03-2.85 3.03s-2.85-1.27-2.85-3.03c0-1.72 1.22-2.94 2.85-2.94s2.85 1.22 2.85 2.94zm-515.61 52.33v7.94h12.19v2.66h-12.19v8.29h14.09v2.62h-16.85v-24.18h16.4v2.66h-13.64z"/><use xlink:href="#H"/><use xlink:href="#H" x="12.84"/><path d="M991.85 954.82c0 5.46-3.83 9.22-9.22 9.22s-9.22-3.76-9.22-9.22c0-5.42 3.83-9.15 9.22-9.15 5.38-.01 9.22 3.72 9.22 9.15zm-15.75.03c0 4.01 2.73 6.77 6.53 6.77s6.53-2.76 6.53-6.77c0-3.97-2.73-6.73-6.53-6.73s-6.53 2.76-6.53 6.73z"/><use xlink:href="#H" x="47.03"/><path d="M1033.07 948.36l-1.49 1.9c-1.38-1.31-3.21-2.11-5.42-2.11-3.77 0-6.46 2.73-6.46 6.7s2.69 6.73 6.46 6.73c2.38 0 4.35-.83 5.63-2.35l1.55 1.66c-1.62 1.97-4.14 3.14-7.29 3.14-5.28 0-9.01-3.76-9.01-9.19 0-5.42 3.76-9.19 9.01-9.19 2.94-.02 5.36.98 7.02 2.71zm20.92 6.46c0 5.46-3.83 9.22-9.22 9.22s-9.22-3.76-9.22-9.22c0-5.42 3.83-9.15 9.22-9.15 5.39-.01 9.22 3.72 9.22 9.15zm-15.74.03c0 4.01 2.73 6.77 6.53 6.77s6.53-2.76 6.53-6.77c0-3.97-2.73-6.73-6.53-6.73-3.81 0-6.53 2.76-6.53 6.73zm37.19 9.08h-2.69v-3.9c-1.35 2.55-3.83 4.04-7.08 4.04-5.18 0-8.77-3.83-8.77-9.26 0-5.46 3.59-9.22 8.74-9.22 3.25 0 5.77 1.49 7.11 4.07V938.3h2.69v25.63zm-2.7-9.05c0-3.97-2.73-6.84-6.56-6.84-3.87 0-6.6 2.87-6.6 6.84 0 3.94 2.73 6.77 6.6 6.77 3.83 0 6.56-2.83 6.56-6.77zm25.1 1.01h-14.85c.48 3.56 3.07 5.8 6.6 5.8 2.24 0 4.21-.8 5.63-2.28l1.48 1.59c-1.73 1.93-4.28 3.04-7.32 3.04-5.35 0-9.05-3.76-9.05-9.19 0-5.42 3.73-9.19 9.01-9.19 5.88-.03 8.78 4.04 8.5 10.23zm-2.42-2.22c-.17-3.49-2.52-5.7-6.08-5.7-3.45 0-5.94 2.24-6.35 5.7h12.43zm8.87-1.51c0 1.04-.72 1.8-1.66 1.8-.97 0-1.69-.76-1.69-1.8s.72-1.8 1.69-1.8c.94 0 1.66.76 1.66 1.8zm0 10.25c0 1.04-.72 1.79-1.66 1.79-.97 0-1.69-.76-1.69-1.79s.72-1.8 1.69-1.8c.94.01 1.66.77 1.66 1.8z"/><use xlink:href="#I"/><path d="M1157.13 951.84c0 7.81-3.56 12.16-9.98 12.16s-9.98-4.35-9.98-12.16 3.56-12.16 9.98-12.16c6.42.01 9.98 4.36 9.98 12.16zm-17.17 0c0 6.53 2.49 9.81 7.18 9.81 4.7 0 7.18-3.28 7.18-9.81 0-6.56-2.49-9.81-7.18-9.81-4.69.01-7.18 3.25-7.18 9.81z"/><use xlink:href="#I" x="43.53"/></g><defs ><path id="B" d="M1088.97 530.74c0 2.62-.86 4.81-2.57 6.58-1.72 1.77-4.21 2.65-7.47 2.65h-4.89v13.85c0 7.54-3.86 11.31-11.59 11.31-6.53 0-9.78-4.08-9.78-12.23v-12.93h-43c-9.96 0-14.93-2.69-14.93-8.08 0-2.15.81-4.58 2.45-7.27 1.63-2.69 2.96-4.81 3.99-6.35l33.99-52.63c2.74-3.84 5.62-6.69 8.63-8.54 3-1.85 6.48-2.77 10.43-2.77 6.35 0 11.24 1.62 14.68 4.85 3.43 3.23 5.15 8.62 5.15 16.16v46.17h4.89c3.26 0 5.75.92 7.47 2.77 1.69 1.85 2.55 4 2.55 6.46zm-36.31-9.23v-47.55l-29.87 47.55h29.87z"/><path id="C" d="M1085.9 823.43v14.98h-5.2v-13.53c0-3.62-2.17-5.84-5.79-5.84-3.98.05-6.47 2.81-6.83 6.56v12.81h-5.2v-24.07h5.2v4.62c1.72-3.35 4.8-4.8 8.87-4.8 5.6 0 8.95 3.53 8.95 9.27z"/><path id="D" d="M1116.17 836.87c-1.9 1.13-3.89 1.77-5.93 1.77-3.62 0-6.74-2.08-6.74-7.01v-12.49h-3.39v-3.89h3.39v-6.61h5.16v6.61h7.1v3.89h-7.1v11.54c0 2.49.95 3.26 2.58 3.26 1.09 0 2.22-.36 3.62-1.04l1.31 3.97z"/><path id="E" d="M1175.09 828.36h-18.19c.81 3.71 3.66 6.02 7.47 6.02 2.62 0 5.02-1 6.79-2.81l2.76 2.94c-2.35 2.58-5.79 4.07-9.96 4.07-7.42 0-12.31-4.93-12.31-12.17 0-7.28 5.02-12.22 12.17-12.26 8.46.01 11.9 5.53 11.27 14.21zm-4.53-3.8c-.18-3.89-2.76-6.24-6.7-6.24-3.8 0-6.47 2.4-7.06 6.24h13.76z"/><path id="F" d="M1008.11 890.36c0 6.92-4.93 11.27-12.49 11.27-3.76 0-7.06-1.18-10-3.17l2.22-3.76c2.26 1.67 4.61 2.62 7.56 2.62 4.57 0 7.56-2.67 7.56-6.83v-3.03c-1.63 2.62-4.34 4.07-7.96 4.07-6.52 0-10.86-4.71-10.86-11.63 0-6.79 4.3-11.4 10.68-11.45 3.71-.04 6.47 1.45 8.14 4.07v-3.89h5.16v21.73zm-5.16-10.32c0-4.34-2.85-7.37-6.92-7.37-4.12 0-6.97 3.08-7.01 7.37.04 4.34 2.85 7.42 7.01 7.42 4.07 0 6.92-3.07 6.92-7.42z"/><path id="G" d="M1236.58 880.67c0 7.24-5.11 12.22-12.53 12.22-7.47 0-12.58-4.98-12.58-12.22 0-7.29 5.11-12.22 12.58-12.22 7.42.01 12.53 4.94 12.53 12.22zm-19.91.05c0 4.66 3.03 7.83 7.38 7.83 4.3 0 7.33-3.17 7.33-7.83 0-4.62-3.03-7.78-7.33-7.78-4.35 0-7.38 3.17-7.38 7.78z"/><path id="H" d="M952.24 949.77c1.21-2.66 3.45-4.11 6.53-4.15v2.73c-3.83-.07-6.22 2.31-6.53 5.9v9.67h-2.69v-18.2h2.69v4.05z"/><path id="I" d="M1128.09 954.92v-6.39h2.59v6.39h3.66v2.66h-3.66v6.36h-2.59v-6.36h-11.6v-2.28l8.67-15.54h2.73l-8.43 15.16h8.63z"/></defs></svg>